<?xml version="1.0" encoding="UTF-8"?>
<svg version="1.1" xmlns="http://www.w3.org/2000/svg" width="1600" height="1200">
<path d="M0 0 C528 0 1056 0 1600 0 C1600 396 1600 792 1600 1200 C1072 1200 544 1200 0 1200 C0 804 0 408 0 0 Z " fill="#FEFEFE" transform="translate(0,0)"/>
<path d="M0 0 C0.66 0 1.32 0 2 0 C3.26171875 1.50390625 3.26171875 1.50390625 4.6875 3.5625 C15.53455296 18.32798597 31.54551623 25.77659047 48.5625 31.375 C49.75125732 31.7678418 50.94001465 32.16068359 52.16479492 32.56542969 C67.06223495 37.41441983 82.15166015 41.17108237 97.4375 44.5625 C105.77873198 46.41374468 113.88946577 48.61649125 121.98876953 51.33203125 C124.16223911 52.05388276 126.34380202 52.74674542 128.52734375 53.4375 C141.76633038 57.6673146 153.84796431 62.5101984 165 71 C165.9075 71.639375 166.815 72.27875 167.75 72.9375 C175.63960119 80.16963442 180.75695537 89.3995845 181.23828125 100.1171875 C181.48091462 110.78743915 180.39748211 119.85305565 177 130 C177.87398437 129.34644531 177.87398437 129.34644531 178.765625 128.6796875 C191.09708437 119.72192928 203.43980668 113.17049848 219 115 C227.0703296 117.17385757 233.68346634 120.58384943 240 126 C241.21236328 126.92425781 241.21236328 126.92425781 242.44921875 127.8671875 C257.67630692 140.59917852 267.80695703 160.95844266 277.875 177.8125 C290.50109771 199.03941358 290.50109771 199.03941358 305 219 C305.63156006 219.79180664 305.63156006 219.79180664 306.27587891 220.59960938 C319.34642735 236.88172375 333.40624971 247.78124989 353 255 C352.55269531 255.65484375 352.10539062 256.3096875 351.64453125 256.984375 C339.53937379 275.25825876 337.4652036 293.27162409 337.6875 314.625 C337.69683193 316.49918553 337.7060269 318.37337174 337.71508789 320.24755859 C337.79768736 331.25254301 338.14617926 342.1657624 339.46484375 353.1015625 C342.86468444 381.94567383 346.68480177 421.12871007 328.6875 445.875 C318.58368785 457.96895696 305.00207013 462.2665605 289.6875 463.6875 C288.12565961 463.8011289 286.56333053 463.90914512 285 464 C286.39412109 465.12535156 286.39412109 465.12535156 287.81640625 466.2734375 C298.61750829 475.15009626 307.05170806 483.84311542 310 498 C310.92529732 508.13861497 309.27505152 515.8285232 305 525 C304.55140625 526.05574219 304.55140625 526.05574219 304.09375 527.1328125 C296.79986224 543.27391597 283.23027501 557.570145 271.3203125 570.4375 C268.20821623 573.87442787 265.30867705 577.46301024 262.40234375 581.07421875 C260.69398969 583.15479955 258.97107887 585.18990824 257.19140625 587.20703125 C236.15294743 611.08656336 220.43273953 636.49163401 219 669 C217.54096742 668.69078116 216.08279278 668.37751201 214.625 668.0625 C213.81289063 667.88847656 213.00078125 667.71445312 212.1640625 667.53515625 C210 667 210 667 208 666 C175.40592177 663.46110095 146.0894323 675.20790953 116.68945312 687.86132812 C112.49239068 689.63829792 108.25205641 691.29733203 104 692.9375 C102.95054199 693.34295044 102.95054199 693.34295044 101.87988281 693.7565918 C97.86893486 695.29855023 93.84701979 696.81050706 89.82177734 698.31469727 C88.30044136 698.88698219 86.78430338 699.47306077 85.26953125 700.0625 C69.12985237 706.22072405 46.97406901 711.0885855 29.9375 705.5 C15.98751782 699.19085313 7.42081237 688.8596002 2 674.75 C1.62875 673.67234375 1.2575 672.5946875 0.875 671.484375 C0.23211498 669.08809861 0.23211498 669.08809861 -1 668 C-1.27972656 668.79921875 -1.55945313 669.5984375 -1.84765625 670.421875 C-7.14390112 684.93120179 -13.1696045 697.21676377 -27.5703125 703.95703125 C-28.37210938 704.30121094 -29.17390625 704.64539063 -30 705 C-30.73734375 705.36609375 -31.4746875 705.7321875 -32.234375 706.109375 C-55.44706233 713.58464719 -84.28146156 699.025272 -105.0390625 689.75390625 C-127.03005056 679.95155194 -150.21238216 670.2163238 -174 666 C-175.27875 665.773125 -176.5575 665.54625 -177.875 665.3125 C-191.58999853 663.97869465 -203.70269698 665.76239579 -217 669 C-217.00257813 667.88625 -217.00515625 666.7725 -217.0078125 665.625 C-217.4821218 639.90153084 -231.35520724 620.4779461 -247 601 C-247.80566406 599.99195313 -248.61132812 598.98390625 -249.44140625 597.9453125 C-256.01088944 589.83629031 -262.7716743 581.86573002 -269.6171875 573.98828125 C-284.65121471 556.63356527 -299.79788396 538.090524 -307 516 C-307.36738281 514.92878906 -307.36738281 514.92878906 -307.7421875 513.8359375 C-310.82672717 503.56822326 -309.42107825 492.99566643 -304.78125 483.5078125 C-299.56856154 474.21185141 -292.73418573 466.99612994 -284 461 C-284.86782104 460.89510254 -284.86782104 460.89510254 -285.75317383 460.78808594 C-317.35490807 456.87677787 -317.35490807 456.87677787 -328.3125 443.125 C-337.24417493 430.17160404 -338.52156291 415.02038548 -338.3125 399.6875 C-338.30314657 398.31876734 -338.29395247 396.95003359 -338.28491211 395.58129883 C-338.19704433 387.00031133 -337.66843662 378.58778206 -336.5078125 370.08984375 C-335.78973697 364.75127859 -335.57108729 359.38673882 -335.34204102 354.00854492 C-335.20837535 351.05803681 -335.03734237 348.20016449 -334.49511719 345.29370117 C-333.89546564 341.3045991 -333.83781391 337.43763521 -333.83203125 333.41015625 C-333.82870285 332.58857529 -333.82537445 331.76699432 -333.82194519 330.92051697 C-333.81689787 329.18326371 -333.81453618 327.44600082 -333.81469727 325.70874023 C-333.8125327 323.1018791 -333.79441465 320.49545706 -333.77539062 317.88867188 C-333.69288456 294.04967296 -338.62214336 275.47972643 -351 255 C-349.98292969 254.67128906 -349.98292969 254.67128906 -348.9453125 254.3359375 C-337.28223415 250.36209086 -328.85825374 244.4922102 -320 236 C-319.33355469 235.39671875 -318.66710937 234.7934375 -317.98046875 234.171875 C-301.48994014 218.72249993 -290.21043338 196.58909789 -278.39135742 177.60107422 C-273.4158893 169.62400584 -268.32863048 161.74554501 -263 154 C-262.34 153.03320312 -261.68 152.06640625 -261 151.0703125 C-255.90919995 143.82413339 -250.16152965 137.33484975 -244 131 C-243.19691406 130.17113281 -242.39382813 129.34226563 -241.56640625 128.48828125 C-231.78958563 119.03253848 -220.37004713 113.70904046 -206.75561523 113.68310547 C-195.66423636 113.87234226 -187.16367581 118.0444048 -178 124 C-176.33663589 125.00548377 -174.67081237 126.0069422 -173 127 C-173.20496094 126.27554688 -173.40992188 125.55109375 -173.62109375 124.8046875 C-173.89050781 123.83789062 -174.15992188 122.87109375 -174.4375 121.875 C-174.70433594 120.92367187 -174.97117187 119.97234375 -175.24609375 118.9921875 C-177.83657677 108.71078858 -179.63161359 94.48351139 -174.25390625 84.87109375 C-173.63322266 83.94490234 -173.63322266 83.94490234 -173 83 C-172.57589844 82.33097656 -172.15179687 81.66195312 -171.71484375 80.97265625 C-154.59674038 56.12994913 -118.4897716 51.38963175 -91.1484375 45.796875 C-59.73158576 39.32321416 -20.27023554 29.93788032 -1.15625 1.43359375 C-0.7746875 0.96050781 -0.393125 0.48742187 0 0 Z " fill="#2B2C51" transform="translate(798,102)"/>
<path d="M0 0 C0.66 0 1.32 0 2 0 C3.26171875 1.50390625 3.26171875 1.50390625 4.6875 3.5625 C15.53455296 18.32798597 31.54551623 25.77659047 48.5625 31.375 C49.75125732 31.7678418 50.94001465 32.16068359 52.16479492 32.56542969 C67.06223495 37.41441983 82.15166015 41.17108237 97.4375 44.5625 C105.77873198 46.41374468 113.88946577 48.61649125 121.98876953 51.33203125 C124.16223911 52.05388276 126.34380202 52.74674542 128.52734375 53.4375 C141.76633038 57.6673146 153.84796431 62.5101984 165 71 C165.9075 71.639375 166.815 72.27875 167.75 72.9375 C175.63960119 80.16963442 180.75695537 89.3995845 181.23828125 100.1171875 C181.48091462 110.78743915 180.39748211 119.85305565 177 130 C177.87398437 129.34644531 177.87398437 129.34644531 178.765625 128.6796875 C191.09708437 119.72192928 203.43980668 113.17049848 219 115 C227.0703296 117.17385757 233.68346634 120.58384943 240 126 C241.21236328 126.92425781 241.21236328 126.92425781 242.44921875 127.8671875 C257.67630692 140.59917852 267.80695703 160.95844266 277.875 177.8125 C290.50109771 199.03941358 290.50109771 199.03941358 305 219 C305.63156006 219.79180664 305.63156006 219.79180664 306.27587891 220.59960938 C319.34642735 236.88172375 333.40624971 247.78124989 353 255 C352.55269531 255.65484375 352.10539062 256.3096875 351.64453125 256.984375 C339.53937379 275.25825876 337.4652036 293.27162409 337.6875 314.625 C337.69683193 316.49918553 337.7060269 318.37337174 337.71508789 320.24755859 C337.79768736 331.25254301 338.14617926 342.1657624 339.46484375 353.1015625 C342.86468444 381.94567383 346.68480177 421.12871007 328.6875 445.875 C318.58368785 457.96895696 305.00207013 462.2665605 289.6875 463.6875 C288.12565961 463.8011289 286.56333053 463.90914512 285 464 C286.39412109 465.12535156 286.39412109 465.12535156 287.81640625 466.2734375 C298.61750829 475.15009626 307.05170806 483.84311542 310 498 C310.92529732 508.13861497 309.27505152 515.8285232 305 525 C304.55140625 526.05574219 304.55140625 526.05574219 304.09375 527.1328125 C296.79986224 543.27391597 283.23027501 557.570145 271.3203125 570.4375 C268.20821623 573.87442787 265.30867705 577.46301024 262.40234375 581.07421875 C260.69398969 583.15479955 258.97107887 585.18990824 257.19140625 587.20703125 C236.15294743 611.08656336 220.43273953 636.49163401 219 669 C217.54096742 668.69078116 216.08279278 668.37751201 214.625 668.0625 C213.81289063 667.88847656 213.00078125 667.71445312 212.1640625 667.53515625 C210 667 210 667 208 666 C175.40592177 663.46110095 146.0894323 675.20790953 116.68945312 687.86132812 C112.49239068 689.63829792 108.25205641 691.29733203 104 692.9375 C102.95054199 693.34295044 102.95054199 693.34295044 101.87988281 693.7565918 C97.86893486 695.29855023 93.84701979 696.81050706 89.82177734 698.31469727 C88.30044136 698.88698219 86.78430338 699.47306077 85.26953125 700.0625 C69.12985237 706.22072405 46.97406901 711.0885855 29.9375 705.5 C15.98751782 699.19085313 7.42081237 688.8596002 2 674.75 C1.62875 673.67234375 1.2575 672.5946875 0.875 671.484375 C0.23211498 669.08809861 0.23211498 669.08809861 -1 668 C-1.27972656 668.79921875 -1.55945313 669.5984375 -1.84765625 670.421875 C-7.14390112 684.93120179 -13.1696045 697.21676377 -27.5703125 703.95703125 C-28.37210938 704.30121094 -29.17390625 704.64539063 -30 705 C-30.73734375 705.36609375 -31.4746875 705.7321875 -32.234375 706.109375 C-55.44706233 713.58464719 -84.28146156 699.025272 -105.0390625 689.75390625 C-127.03005056 679.95155194 -150.21238216 670.2163238 -174 666 C-175.27875 665.773125 -176.5575 665.54625 -177.875 665.3125 C-191.58999853 663.97869465 -203.70269698 665.76239579 -217 669 C-217.00257813 667.88625 -217.00515625 666.7725 -217.0078125 665.625 C-217.4821218 639.90153084 -231.35520724 620.4779461 -247 601 C-247.80566406 599.99195313 -248.61132812 598.98390625 -249.44140625 597.9453125 C-256.01088944 589.83629031 -262.7716743 581.86573002 -269.6171875 573.98828125 C-284.65121471 556.63356527 -299.79788396 538.090524 -307 516 C-307.36738281 514.92878906 -307.36738281 514.92878906 -307.7421875 513.8359375 C-310.82672717 503.56822326 -309.42107825 492.99566643 -304.78125 483.5078125 C-299.56856154 474.21185141 -292.73418573 466.99612994 -284 461 C-284.86782104 460.89510254 -284.86782104 460.89510254 -285.75317383 460.78808594 C-317.35490807 456.87677787 -317.35490807 456.87677787 -328.3125 443.125 C-337.24417493 430.17160404 -338.52156291 415.02038548 -338.3125 399.6875 C-338.30314657 398.31876734 -338.29395247 396.95003359 -338.28491211 395.58129883 C-338.19704433 387.00031133 -337.66843662 378.58778206 -336.5078125 370.08984375 C-335.78973697 364.75127859 -335.57108729 359.38673882 -335.34204102 354.00854492 C-335.20837535 351.05803681 -335.03734237 348.20016449 -334.49511719 345.29370117 C-333.89546564 341.3045991 -333.83781391 337.43763521 -333.83203125 333.41015625 C-333.82870285 332.58857529 -333.82537445 331.76699432 -333.82194519 330.92051697 C-333.81689787 329.18326371 -333.81453618 327.44600082 -333.81469727 325.70874023 C-333.8125327 323.1018791 -333.79441465 320.49545706 -333.77539062 317.88867188 C-333.69288456 294.04967296 -338.62214336 275.47972643 -351 255 C-349.98292969 254.67128906 -349.98292969 254.67128906 -348.9453125 254.3359375 C-337.28223415 250.36209086 -328.85825374 244.4922102 -320 236 C-319.33355469 235.39671875 -318.66710937 234.7934375 -317.98046875 234.171875 C-301.48994014 218.72249993 -290.21043338 196.58909789 -278.39135742 177.60107422 C-273.4158893 169.62400584 -268.32863048 161.74554501 -263 154 C-262.34 153.03320312 -261.68 152.06640625 -261 151.0703125 C-255.90919995 143.82413339 -250.16152965 137.33484975 -244 131 C-243.19691406 130.17113281 -242.39382813 129.34226563 -241.56640625 128.48828125 C-231.78958563 119.03253848 -220.37004713 113.70904046 -206.75561523 113.68310547 C-195.66423636 113.87234226 -187.16367581 118.0444048 -178 124 C-176.33663589 125.00548377 -174.67081237 126.0069422 -173 127 C-173.20496094 126.27554688 -173.40992188 125.55109375 -173.62109375 124.8046875 C-173.89050781 123.83789062 -174.15992188 122.87109375 -174.4375 121.875 C-174.70433594 120.92367187 -174.97117187 119.97234375 -175.24609375 118.9921875 C-177.83657677 108.71078858 -179.63161359 94.48351139 -174.25390625 84.87109375 C-173.63322266 83.94490234 -173.63322266 83.94490234 -173 83 C-172.57589844 82.33097656 -172.15179687 81.66195312 -171.71484375 80.97265625 C-154.59674038 56.12994913 -118.4897716 51.38963175 -91.1484375 45.796875 C-59.73158576 39.32321416 -20.27023554 29.93788032 -1.15625 1.43359375 C-0.7746875 0.96050781 -0.393125 0.48742187 0 0 Z M-43.25 104.5625 C-44.24523682 104.72959473 -45.24047363 104.89668945 -46.26586914 105.06884766 C-70.24399272 109.3779812 -94.2067886 117.05905409 -116 128 C-116.65935547 128.32838867 -117.31871094 128.65677734 -117.99804688 128.99511719 C-140.66083208 140.36971815 -161.4244243 154.49407034 -179.8125 171.98828125 C-182 174 -182 174 -184 175 C-184 175.66 -184 176.32 -184 177 C-184.59224365 177.26393555 -185.1844873 177.52787109 -185.79467773 177.79980469 C-188.08946711 179.04869039 -189.50074963 180.3082462 -191.28515625 182.203125 C-191.89278809 182.84660889 -192.50041992 183.49009277 -193.12646484 184.15307617 C-193.76535645 184.84506104 -194.40424805 185.5370459 -195.0625 186.25 C-196.05950928 187.32374878 -196.05950928 187.32374878 -197.07666016 188.41918945 C-220.72571581 214.17702372 -239.52276083 245.13733037 -251.29736328 278.03857422 C-251.94751617 279.85349023 -252.61181774 281.663321 -253.27734375 283.47265625 C-268.17776636 325.69845451 -271.69651035 373.61629106 -262.7109375 417.4765625 C-262.07126894 420.64678801 -261.5797857 423.79933836 -261.125 427 C-260.00345482 433.82120101 -257.88804403 440.29401611 -255.71630859 446.83642578 C-254.98258065 449.05261427 -254.26569751 451.27377201 -253.55078125 453.49609375 C-234.65799503 511.80507979 -195.03749825 563.33142859 -143 596 C-142.36964844 596.39896484 -141.73929688 596.79792969 -141.08984375 597.20898438 C-99.68030387 623.18405939 -52.84672673 637.24233768 -4.02929688 637.13037109 C-1.26947467 637.12503764 1.49018289 637.13033028 4.25 637.13671875 C20.03956776 637.14583513 35.22830413 636.55700336 50.75 633.3125 C51.39508514 633.17994812 52.04017029 633.04739624 52.70480347 632.91082764 C96.53535882 623.87791778 137.66742777 604.84149313 172 576 C172.52658203 575.56220215 173.05316406 575.1244043 173.59570312 574.67333984 C184.6626424 565.45608912 194.91497171 555.90336896 203.90234375 544.5859375 C205.76889814 542.28489652 207.71467137 540.15005488 209.75 538 C231.91024534 513.27940759 248.08321224 479.83644727 257.08984375 448.16796875 C258 445 258 445 259.4375 441.4375 C273.63034936 403.68452071 272.22013618 354.94891161 264 316 C263.85836426 315.32340332 263.71672852 314.64680664 263.57080078 313.94970703 C259.97650513 297.10616244 255.24947335 280.64662058 248 265 C247.34451172 263.51113281 247.34451172 263.51113281 246.67578125 261.9921875 C234.86893797 235.53673923 219.61405153 211.34895992 199.875 190.0859375 C198 188 198 188 196.375 185.7265625 C195.92125 185.15679687 195.4675 184.58703125 195 184 C194.34 184 193.68 184 193 184 C192.79117187 183.45601563 192.58234375 182.91203125 192.3671875 182.3515625 C190.48754178 179.11857186 187.87929065 176.84737106 185.125 174.375 C184.54129639 173.84575928 183.95759277 173.31651855 183.35620117 172.77124023 C133.70111258 128.03130037 70.66366732 101.67510237 3.44726562 101.86962891 C1.26685525 101.8749588 -0.91334608 101.86966532 -3.09375 101.86328125 C-16.54720225 101.85522654 -29.95726298 102.32744853 -43.25 104.5625 Z " fill="#2A2C51" transform="translate(798,102)"/>
<path d="M0 0 C1.60446969 0.74304651 3.21004828 1.48370078 4.81640625 2.22265625 C26.80291939 12.39917905 46.89097013 24.83679587 64.51171875 41.62890625 C66.61809341 43.63607959 68.76611653 45.51418872 71 47.375 C108.68248336 80.2203944 131.68450568 130.60575687 140 179 C140.18691406 180.00643555 140.37382813 181.01287109 140.56640625 182.04980469 C142.24393744 192.05847923 142.30509514 201.95981798 142.26074219 212.0859375 C142.25001842 214.99500364 142.26069571 217.90345246 142.2734375 220.8125 C142.28115069 231.08264481 141.8380818 240.87406115 140 251 C139.77241324 252.46057691 139.54681027 253.92146598 139.32421875 255.3828125 C137.98362237 263.26190043 136.38188174 271.04383271 134.5 278.8125 C134.29850342 279.66666504 134.09700684 280.52083008 133.8894043 281.40087891 C133.68871338 282.20315918 133.48802246 283.00543945 133.28125 283.83203125 C133.10658203 284.54077393 132.93191406 285.2495166 132.75195312 285.97973633 C131.86845346 288.35342454 130.59452561 290.04659647 129 292 C128.97812622 290.18918945 128.97812622 290.18918945 128.95581055 288.34179688 C128.81510985 256.02453503 128.81510985 256.02453503 125 224 C124.80277344 222.93120605 124.60554688 221.86241211 124.40234375 220.76123047 C117.13856128 182.66443125 101.45582602 143.51000812 71 118 C69.76056641 116.92878906 69.76056641 116.92878906 68.49609375 115.8359375 C61.24434525 109.69253484 53.33940791 103.696764 44.5390625 99.953125 C42.11191325 98.85233612 40.73511592 98.04309899 39 96 C37.93806852 92.81789282 37.17509938 89.7185865 36.5012207 86.43969727 C34.47360179 76.75877857 29.99997577 65.23331445 22 59 C13.63258828 53.95073268 13.63258828 53.95073268 4.28515625 52 C-4.29769917 52 -8.82471694 49.72475797 -15.34375 44.2265625 C-17.7939207 42.17274295 -20.21856544 40.56203753 -23 39 C-29.90189954 47.84030537 -36.53984822 56.83208247 -43 66 C-39.93170966 69.16604118 -36.81757214 71.90245374 -33.3125 74.5625 C-28.64278117 78.65618443 -28.11129577 81.83213015 -27.49609375 87.83984375 C-26.20067654 96.0917534 -21.75276174 103.49973993 -15.1796875 108.609375 C-8.97489983 112.56798505 -2.76180622 114.0743083 4.4375 115.3125 C10.70117989 116.607265 10.70117989 116.607265 13.1875 119.875 C13.6328125 121.73828125 13.6328125 121.73828125 14 124 C14.24492188 124.94230469 14.48984375 125.88460937 14.7421875 126.85546875 C18.16470009 140.23586322 19.38523582 153.60109164 19.3125 167.375 C19.31034485 168.11500244 19.3081897 168.85500488 19.30596924 169.61743164 C19.15001519 203.22057077 11.91319714 236.95497343 -1 268 C-1.66 268 -2.32 268 -3 268 C-3.30550781 267.19820312 -3.61101562 266.39640625 -3.92578125 265.5703125 C-10.94997597 248.11865126 -21.63649184 230.36350816 -35 217 C-36.72016093 207.68011171 -34.28765711 202.05247296 -29.11328125 194.4609375 C-23.23027588 185.40084602 -20.39177256 173.45865781 -22.40625 162.86328125 C-24.3038173 156.30918367 -29.2365994 152.32011707 -34.89453125 148.83203125 C-39.95952886 146.83046447 -46.32854529 146.98126195 -51.38671875 148.91015625 C-58.54484916 153.15049636 -62.72736827 159.02700324 -65 167 C-65.48811384 170.01235 -65.61803493 172.95088449 -65.625 176 C-65.62959229 177.22481079 -65.62959229 177.22481079 -65.63427734 178.47436523 C-65.38363252 187.28018294 -62.38201351 197.61798649 -56 204 C-54.98798228 207.85110099 -55.03420113 211.14173209 -56 215 C-57.97770852 217.50822523 -60.087316 219.60555744 -62.45166016 221.74536133 C-75.07194235 233.17561691 -84.57972411 251.35480137 -91 267 C-91.66 267 -92.32 267 -93 267 C-93.29390625 266.17242188 -93.5878125 265.34484375 -93.890625 264.4921875 C-99.53668565 249.46847439 -107.48565867 229.51434133 -119 218 C-118.64574047 212.95180166 -117.68047702 208.85998861 -115.83203125 204.1796875 C-112.58370654 195.66999177 -110.76411291 187.13587124 -112 178 C-113.72988903 174.27490154 -115.25705013 172.42298517 -119 170.75 C-119.680625 170.43546875 -120.36125 170.1209375 -121.0625 169.796875 C-127.27924028 167.23998988 -133.24984866 167.20758351 -139.6875 169.0625 C-144.62201437 171.94872538 -149.15350691 175.46052073 -151 181 C-152.03849025 192.57174847 -150.23126178 202.53747643 -145 213 C-144.4375 216.0625 -144.4375 216.0625 -145 220 C-146.69608451 222.28763443 -148.61624686 224.25190264 -150.5859375 226.30859375 C-162.44028609 239.5248497 -170.1005349 256.43611723 -176 273 C-178.4263151 270.80858709 -179.735708 268.80747767 -181.05078125 265.82421875 C-181.42009766 264.99470703 -181.78941406 264.16519531 -182.16992188 263.31054688 C-182.54697266 262.44494141 -182.92402344 261.57933594 -183.3125 260.6875 C-183.86067383 259.45290039 -183.86067383 259.45290039 -184.41992188 258.19335938 C-185.1963305 256.43805904 -185.96574221 254.67965218 -186.72924805 252.91870117 C-187.62301891 250.86586146 -188.53215228 248.81967568 -189.45239258 246.77856445 C-193.36872169 237.95286619 -196.3454089 229.06419987 -199.0625 219.8125 C-199.49862177 218.34321495 -199.93490275 216.87397715 -200.37133789 215.40478516 C-201.21858224 212.54257454 -202.05858754 209.67839549 -202.89160156 206.81201172 C-203.55189273 204.54113369 -204.21636659 202.27145497 -204.88964844 200.00439453 C-210.13023169 182.3030937 -212.2282857 164.57334793 -212.4375 146.125 C-212.45981689 144.95461182 -212.48213379 143.78422363 -212.50512695 142.57836914 C-212.48613105 135.46414653 -211.54582433 130.19096474 -208 124 C-207.27876953 122.71222656 -207.27876953 122.71222656 -206.54296875 121.3984375 C-202.40646188 115.22347912 -197.86346147 110.11896149 -191.875 105.6875 C-187.00531297 101.13540125 -183.30879768 94.06187711 -182.796875 87.328125 C-182.5849163 77.65880087 -182.5849163 77.65880087 -187.359375 69.5390625 C-193.19820509 64.33227072 -198.44675136 63.60200186 -206.00390625 63.75 C-210.13300069 64.09453982 -213.34247891 65.09440078 -217 67 C-217.65484375 67.3403125 -218.3096875 67.680625 -218.984375 68.03125 C-226.72501015 72.47161435 -232.05095288 78.00070461 -235.9375 86 C-237.609375 88.84375 -237.609375 88.84375 -240 91 C-244.36169511 92.00413125 -248.72518494 91.50518326 -253.13671875 91.09375 C-256.88002637 90.70920507 -256.88002637 90.70920507 -259.48828125 92.19921875 C-261.84947258 95.01190402 -261.55505443 97.18021386 -261.3828125 100.72265625 C-260.78660131 104.26950446 -259.33154412 106.30031734 -257 109 C-255.9275 109.680625 -254.855 110.36125 -253.75 111.0625 C-251.31564588 112.95175702 -251.01440048 113.92195544 -250.44140625 117.02734375 C-250.10976174 125.96164584 -250.10976174 125.96164584 -253.25390625 129.62890625 C-254.16011719 130.41136719 -255.06632813 131.19382812 -256 132 C-273.61161226 148.80015572 -286.86846185 168.91799689 -297 191 C-297.54269531 192.18078125 -298.08539062 193.3615625 -298.64453125 194.578125 C-309.83637515 219.85185858 -314.47272732 246.61582234 -317 274 C-317.09716309 275.05171387 -317.19432617 276.10342773 -317.29443359 277.18701172 C-317.53260349 279.79108568 -317.76793018 282.39537638 -318 285 C-318.33 285 -318.66 285 -319 285 C-325.38825046 262.43034356 -328.42059449 240.06403336 -328.375 216.625 C-328.37545319 215.71223297 -328.37590637 214.79946594 -328.37637329 213.85903931 C-328.35378243 198.28985733 -327.22218689 183.27363247 -324 168 C-323.67056396 166.43668945 -323.67056396 166.43668945 -323.33447266 164.84179688 C-310.29769553 105.77469294 -273.0095348 51.76040083 -222.01318359 19.03149414 C-218.70726014 16.9656023 -215.36610025 14.9661175 -212 13 C-210.89906006 12.35587158 -210.89906006 12.35587158 -209.77587891 11.69873047 C-148.21642863 -24.02808816 -64.99071258 -31.58942514 0 0 Z " fill="#FDFDFD" transform="translate(892,255)"/>
<path d="M0 0 C0.72950867 -0.00067474 1.45901733 -0.00134949 2.21063232 -0.00204468 C24.79471501 0.03070539 46.74120007 2.92012578 68.6875 8.25 C69.44111816 8.43256348 70.19473633 8.61512695 70.97119141 8.80322266 C90.33064829 13.65316293 109.14624502 21.81244621 126.6875 31.25 C127.4098584 31.63124023 128.1322168 32.01248047 128.87646484 32.40527344 C138.77016443 37.63778193 148.11460106 43.25569522 157.04492188 50.00878906 C158.68189755 51.24576652 160.33197593 52.46341986 161.984375 53.6796875 C168.96328964 58.87332258 175.39653663 64.50146028 181.71875 70.47265625 C184.84141884 73.42017539 188.08866112 76.20518921 191.39453125 78.9453125 C192.6875 80.25 192.6875 80.25 192.6875 82.25 C193.6775 82.58 194.6675 82.91 195.6875 83.25 C198.26744862 85.67515171 200.4321789 88.52578912 202.6875 91.25 C203.15510742 91.80671387 203.62271484 92.36342773 204.10449219 92.93701172 C220.44983846 112.42012686 233.70848275 133.32190604 244.6875 156.25 C245.37779297 157.65958984 245.37779297 157.65958984 246.08203125 159.09765625 C249.67674951 166.6636823 252.3373646 174.53892825 255.04833984 182.45214844 C255.56480712 183.90488528 256.14244699 185.33578426 256.73828125 186.7578125 C258.04101263 190.17815249 258.83690531 193.69784089 259.6875 197.25 C260.08052854 198.7842399 260.47511964 200.31808018 260.87109375 201.8515625 C264.07796706 214.56633389 266.25093273 227.218858 267.6875 240.25 C267.82027344 241.43207031 267.95304687 242.61414063 268.08984375 243.83203125 C270.78247693 273.74607936 268.31650967 304.53164935 260.65625 333.5625 C259.55339129 337.76047831 258.56501969 341.98080241 257.59375 346.2109375 C256.52685873 349.78870218 255.1592075 353.1853786 253.74902344 356.64013672 C252.76910275 359.04937134 251.82676467 361.46895252 250.8984375 363.8984375 C243.43520612 383.22853161 234.21934759 401.03277474 222.6875 418.25 C222.25969238 418.89163086 221.83188477 419.53326172 221.39111328 420.19433594 C215.33183873 429.19792279 208.49793539 437.41375087 201.26171875 445.4921875 C199.80134502 447.12287777 198.35303001 448.76350843 196.90625 450.40625 C171.60827934 478.68045251 138.81005782 501.23404022 103.65917969 515.45117188 C101.5909803 516.28910506 99.53441405 517.15262467 97.4765625 518.015625 C81.58071645 524.56191386 65.14861486 528.71245674 48.3125 532.0625 C46.78206055 532.3730835 46.78206055 532.3730835 45.22070312 532.68994141 C30.75321216 535.43321805 16.08912904 535.43662092 1.41503906 535.43530273 C-1.30940201 535.4374975 -4.03344199 535.45576491 -6.7578125 535.47460938 C-17.46021726 535.50899753 -27.72900997 534.8694597 -38.3125 533.25 C-40.04291066 533.01259703 -41.77337077 532.77555385 -43.50390625 532.5390625 C-57.94096562 530.39680977 -71.6491445 526.74608968 -85.43408203 521.90771484 C-87.26339467 521.26719389 -89.09844228 520.64312641 -90.93359375 520.01953125 C-109.20521327 513.53605336 -127.11488031 504.93013916 -143.3125 494.25 C-143.97572266 493.81300781 -144.63894531 493.37601563 -145.32226562 492.92578125 C-156.53355795 485.47939733 -166.99167986 477.48282727 -176.94140625 468.40234375 C-179.05753111 466.48144623 -181.20559269 464.61010568 -183.375 462.75 C-190.60042146 456.424129 -197.00727717 449.62240132 -203 442.12109375 C-205.35816982 439.19329845 -207.8003993 436.35148831 -210.25 433.5 C-233.43338867 405.68711111 -247.80669932 372.52779534 -258.3125 338.25 C-258.59802734 337.32993164 -258.88355469 336.40986328 -259.17773438 335.46191406 C-260.45887899 331.28501038 -261.65704691 327.20372147 -262.3125 322.875 C-262.54259766 321.37259766 -262.54259766 321.37259766 -262.77734375 319.83984375 C-262.95394531 318.65519531 -263.13054688 317.47054688 -263.3125 316.25 C-263.56271346 314.68862724 -263.81410178 313.12744248 -264.06640625 311.56640625 C-265.6755321 301.47598839 -267.0222307 291.47673427 -267.3125 281.25 C-267.34504883 280.28610352 -267.37759766 279.32220703 -267.41113281 278.32910156 C-267.84959354 263.54987493 -267.27375329 249.10558957 -265.5625 234.4375 C-265.44474716 233.39521744 -265.44474716 233.39521744 -265.32461548 232.33187866 C-264.13716471 222.04191043 -261.9691933 212.25966727 -259.3125 202.25 C-258.84804486 200.29310953 -258.38840834 198.33505626 -257.9375 196.375 C-254.23522354 181.72428031 -248.77449145 167.88311355 -242.3125 154.25 C-241.98491699 153.55632324 -241.65733398 152.86264648 -241.31982422 152.14794922 C-228.85957847 125.97957062 -212.18638822 102.95244574 -192.5625 81.6875 C-191.96590576 81.03773193 -191.36931152 80.38796387 -190.75463867 79.71850586 C-189.31673766 78.1876344 -187.8197997 76.71259166 -186.3125 75.25 C-185.6525 75.25 -184.9925 75.25 -184.3125 75.25 C-184.3125 74.59 -184.3125 73.93 -184.3125 73.25 C-182.984375 71.875 -182.984375 71.875 -181.0625 70.25 C-180.32257813 69.62351562 -179.58265625 68.99703125 -178.8203125 68.3515625 C-177.99273438 67.65804687 -177.16515625 66.96453125 -176.3125 66.25 C-175.46429687 65.51523437 -174.61609375 64.78046875 -173.7421875 64.0234375 C-148.75115149 42.652273 -120.33287794 26.11925823 -89.3125 15.25 C-88.61044434 15.00008301 -87.90838867 14.75016602 -87.18505859 14.49267578 C-72.29477447 9.21701232 -57.1644921 5.05182536 -41.5625 2.5 C-40.86777588 2.38438721 -40.17305176 2.26877441 -39.45727539 2.1496582 C-26.4435009 0.18438576 -13.13942656 0.01116558 0 0 Z M-98.3125 49.25 C-99.01802002 49.58596191 -99.72354004 49.92192383 -100.45043945 50.26806641 C-144.16153261 71.37981629 -179.56512349 103.01046531 -205.3125 144.25 C-205.68294434 144.83974609 -206.05338867 145.42949219 -206.43505859 146.03710938 C-223.45183729 173.54594333 -232.51834085 204.52831677 -237.3125 236.25 C-237.44527344 237.0951416 -237.57804688 237.9402832 -237.71484375 238.81103516 C-240.71815214 258.42955668 -240.21891909 278.66237278 -237.3125 298.25 C-237.13074219 299.99216797 -237.13074219 299.99216797 -236.9453125 301.76953125 C-234.26175333 326.60614524 -226.3927543 352.23958063 -214.43701172 374.17773438 C-213.19550758 376.46559523 -211.99080979 378.77118386 -210.78515625 381.078125 C-201.90640167 397.86651415 -191.36178082 412.60363199 -178.68261719 426.71679688 C-176.96513924 428.63870733 -175.29653001 430.60061032 -173.625 432.5625 C-166.22199736 440.96590841 -158.13607167 448.36834232 -149.3125 455.25 C-147.89130859 456.36181641 -147.89130859 456.36181641 -146.44140625 457.49609375 C-134.10137778 466.9518659 -120.95574989 474.83937471 -107.3125 482.25 C-106.05953125 482.94029297 -106.05953125 482.94029297 -104.78125 483.64453125 C-87.0458002 492.9806219 -67.82139523 498.75900122 -48.3125 502.9375 C-47.37631836 503.14012451 -46.44013672 503.34274902 -45.47558594 503.55151367 C-30.42751591 506.64077573 -15.57343192 507.62955355 -0.25 507.5625 C1.02235001 507.56026428 1.02235001 507.56026428 2.32040405 507.5579834 C16.28650816 507.51405504 29.91983355 506.7470368 43.6875 504.25 C44.84838135 504.04914795 44.84838135 504.04914795 46.03271484 503.84423828 C88.19940246 496.32911249 127.78091683 475.41574274 159.6875 447.25 C160.19522949 446.80543457 160.70295898 446.36086914 161.22607422 445.90283203 C174.73953162 434.0215815 186.09831978 420.77942076 196.6875 406.25 C197.12271973 405.66089844 197.55793945 405.07179688 198.00634766 404.46484375 C216.13530884 379.68931535 227.37887526 350.83650979 234.6875 321.25 C234.94869629 320.22841797 235.20989258 319.20683594 235.47900391 318.15429688 C243.39836414 286.06942905 242.18686903 249.52018888 235.6875 217.25 C235.5220166 216.4264502 235.3565332 215.60290039 235.18603516 214.75439453 C227.98177146 180.43683669 211.29341287 147.64498391 189.6875 120.25 C188.93855469 119.28707031 188.18960937 118.32414062 187.41796875 117.33203125 C178.83785998 106.55515994 169.41570445 95.93125573 158.6875 87.25 C157.51623607 86.26775048 156.34574473 85.28457938 155.17578125 84.30078125 C132.1299137 65.07222279 105.37452643 49.38036776 76.6875 40.25 C75.00259519 39.67971402 73.31770016 39.10939915 71.6328125 38.5390625 C48.54497281 30.92655542 24.75710188 28.02145359 0.5 28 C-0.19470398 27.99932526 -0.88940796 27.99865051 -1.60516357 27.99795532 C-34.97444251 28.04890878 -68.10182451 34.85510855 -98.3125 49.25 Z " fill="#FBFBFC" transform="translate(798.3125,203.75)"/>
<path d="M0 0 C140.58 0 281.16 0 426 0 C423.93045804 6.20862589 422.02801066 11.29078293 418.8125 16.8125 C418.41450195 17.50480713 418.01650391 18.19711426 417.60644531 18.91040039 C407.42175004 36.44193134 395.10415211 52.46004543 381 67 C380.1853125 67.84304688 379.370625 68.68609375 378.53125 69.5546875 C340.75894639 107.97377713 282.10103567 136.66973175 227.64833069 137.16459656 C226.92004562 137.16570938 226.19176056 137.1668222 225.44140625 137.16796875 C224.6533812 137.17129715 223.86535614 137.17462555 223.05345154 137.17805481 C221.39379451 137.18308206 219.73412752 137.18546445 218.07446289 137.18530273 C215.59959126 137.18746756 213.12518247 137.20560858 210.65039062 137.22460938 C194.5480765 137.28391568 179.07045231 135.54743683 163.3125 132.1875 C162.05574463 131.92179199 160.79898926 131.65608398 159.50415039 131.38232422 C150.7298528 129.47929985 142.37504425 127.26764022 134 124 C132.44410698 123.42031367 130.88810987 122.84090667 129.33203125 122.26171875 C103.32036579 112.3960968 79.94626797 98.26948332 59 80 C58.03320312 79.16339844 57.06640625 78.32679688 56.0703125 77.46484375 C46.4962349 69.00923316 37.93618649 60.00335346 30 50 C29.34386719 49.21109375 28.68773437 48.4221875 28.01171875 47.609375 C19.75662775 37.61724081 12.85247055 26.77882888 6.5 15.5 C6.0786377 14.75878906 5.65727539 14.01757812 5.22314453 13.25390625 C4.82981934 12.54105469 4.43649414 11.82820312 4.03125 11.09375 C3.68642578 10.47177734 3.34160156 9.84980469 2.98632812 9.20898438 C1.67063236 6.26234692 0.88653354 3.10286737 0 0 Z " fill="#FDFDFD" transform="translate(586,570)"/>
<path d="M0 0 C17.180625 -0.103125 34.36125 -0.20625 52.0625 -0.3125 C60.15857788 -0.38078003 60.15857788 -0.38078003 68.41821289 -0.45043945 C75.07897949 -0.47302246 75.07897949 -0.47302246 78.2106781 -0.47721863 C80.36840491 -0.4848279 82.52611231 -0.50226872 84.68370056 -0.52787781 C100.56675127 -0.70674991 116.81972893 -0.83072687 129 11 C130.04607422 12.00546875 130.04607422 12.00546875 131.11328125 13.03125 C139.20491102 21.43352735 142.31886519 30.91907689 142.1484375 42.45703125 C141.61899448 51.52722613 137.54145592 61.63534019 131 68 C126.19472854 71.33426999 121.85303651 74.12047394 116 75 C116 75.66 116 76.32 116 77 C116.9075 77.04125 117.815 77.0825 118.75 77.125 C128.33196723 78.54383085 137.2103529 84.37428426 143 92 C149.69625182 103.26644369 150.60276924 115.02449227 148.31640625 127.828125 C145.07715557 139.17222282 138.68153609 148.87500909 128.34907532 154.97459412 C105.36032663 167.12987388 71.84472944 162.43753757 46.9375 162.25 C31.448125 162.1675 15.95875 162.085 0 162 C0 108.54 0 55.08 0 0 Z " fill="#2A2C51" transform="translate(859,937)"/>
<path d="M0 0 C16.5 0 33 0 50 0 C50.33 19.47 50.66 38.94 51 59 C57.89828991 51.39493441 57.89828991 51.39493441 64.4375 43.5625 C67.51336588 39.75912497 70.68753166 36.09917348 74 32.5 C79.68287241 26.31987626 85.33587705 19.99618443 90 13 C90.66 13 91.32 13 92 13 C92.28875 12.401875 92.5775 11.80375 92.875 11.1875 C94 9 94 9 96 6 C96.66 6 97.32 6 98 6 C98.28875 5.38125 98.5775 4.7625 98.875 4.125 C100 2 100 2 102 0 C104.74612427 -0.24050903 104.74612427 -0.24050903 108.28564453 -0.22705078 C108.92967224 -0.22734283 109.57369995 -0.22763489 110.23724365 -0.22793579 C112.36923627 -0.22654074 114.50088082 -0.21097174 116.6328125 -0.1953125 C118.10968841 -0.19158298 119.58656678 -0.18873572 121.06344604 -0.18673706 C124.95317398 -0.17909574 128.84275288 -0.15944308 132.73242188 -0.1373291 C136.70050032 -0.11688135 140.66860282 -0.10773764 144.63671875 -0.09765625 C152.42454716 -0.07619756 160.21225271 -0.04205572 168 0 C167.58717773 0.47703369 167.17435547 0.95406738 166.74902344 1.44555664 C165.93739746 2.38709595 165.93739746 2.38709595 165.109375 3.34765625 C164.57280273 3.96906494 164.03623047 4.59047363 163.48339844 5.23071289 C161.90311433 7.07064364 161.90311433 7.07064364 160.25 9.4375 C159.8375 9.953125 159.425 10.46875 159 11 C158.34 11 157.68 11 157 11 C156.69292114 11.79712402 156.69292114 11.79712402 156.37963867 12.61035156 C154.42375735 15.9981 151.70193361 18.52262631 148.92578125 21.234375 C148.3237236 21.83123108 147.72166595 22.42808716 147.10136414 23.04302979 C145.17644085 24.95017565 143.24498653 26.85052066 141.3125 28.75 C138.78436905 31.24138021 136.25949269 33.73599256 133.73828125 36.234375 C133.13436554 36.83252014 132.53044983 37.43066528 131.90823364 38.04693604 C128.23240285 41.70929804 124.72519971 45.45806131 121.37182617 49.42089844 C118.6998329 52.4966152 115.62777948 55.17591218 112.625 57.921875 C112.08875 58.60765625 111.5525 59.2934375 111 60 C111.41753853 63.11535531 112.67823439 65.37102468 114.34375 68 C114.83915283 68.78979248 115.33455566 69.57958496 115.8449707 70.39331055 C116.39113037 71.25351807 116.93729004 72.11372559 117.5 73 C118.6926447 74.90156757 119.88398413 76.80395423 121.07421875 78.70703125 C121.71149902 79.72490723 122.3487793 80.7427832 123.00537109 81.79150391 C126.48862348 87.39455199 129.89757452 93.04267952 133.3125 98.6875 C138.940626 107.98247635 144.60661172 117.25247854 150.3125 126.5 C155.21912905 134.46015207 160.10826141 142.43010728 164.9375 150.4375 C165.43999268 151.26636719 165.94248535 152.09523438 166.46020508 152.94921875 C166.91548584 153.7071875 167.3707666 154.46515625 167.83984375 155.24609375 C168.23550537 155.90279053 168.63116699 156.5594873 169.03881836 157.23608398 C170 159 170 159 171 162 C163.15080038 162.23212517 155.30240984 162.40958585 147.45063591 162.51812172 C143.80407038 162.57022912 140.15985876 162.6408302 136.51464844 162.75439453 C132.99365461 162.86339714 129.47491701 162.92290474 125.95236588 162.94877243 C123.96088332 162.97613389 121.97030475 163.05415537 119.98019409 163.13296509 C116.38492886 163.13518946 113.44187662 163.045207 110 162 C107.06360214 159.01170877 105.55152175 155.8537163 104 152 C103.37265509 150.7834974 102.73576444 149.57183067 102.0859375 148.3671875 C101.52132812 147.21476562 100.95671875 146.06234375 100.375 144.875 C99.6980336 143.50515054 99.02094154 142.13536318 98.34375 140.765625 C97.5625 139.17708333 96.78125 137.58854167 96 136 C93.96495758 131.87169188 91.92144038 127.7476679 89.875 123.625 C89.38435059 122.62710449 88.89370117 121.62920898 88.38818359 120.60107422 C85.59954931 114.98552846 82.63699074 109.57762957 79.30126953 104.26708984 C77.94809717 101.90957416 76.95099345 99.54327628 76 97 C67.22073115 104.25243948 59.3876082 112.34723566 52 121 C51.67 121.33 51.34 121.66 51 122 C50.83971449 124.95508539 50.74035139 127.89001413 50.68359375 130.84765625 C50.66494263 131.63297729 50.6462915 132.41829834 50.6270752 133.22741699 C50.55856915 136.17232583 50.49855374 139.11742723 50.4375 142.0625 C50.293125 148.641875 50.14875 155.22125 50 162 C33.5 162 17 162 0 162 C0 108.54 0 55.08 0 0 Z " fill="#2A2C51" transform="translate(670,937)"/>
<path d="M0 0 C15.22125 -0.061875 30.4425 -0.12375 46.125 -0.1875 C50.90500488 -0.21481201 55.68500977 -0.24212402 60.60986328 -0.27026367 C66.51342773 -0.28381348 66.51342773 -0.28381348 69.29000854 -0.28633118 C71.20108139 -0.29089359 73.1121464 -0.3013511 75.02316284 -0.31672668 C94.32616919 -0.46407109 110.73934909 0.91944208 126 14 C136.81036301 27.46238553 138.29185671 42.36990813 137 59 C135.23758621 71.71649336 129.57199326 82.42076765 120 91 C103.99608351 101.95368924 85.81155616 102.31920407 67.125 102.125 C58.648125 102.063125 58.648125 102.063125 50 102 C50 121.8 50 141.6 50 162 C33.5 162 17 162 0 162 C0 108.54 0 55.08 0 0 Z " fill="#2A2C51" transform="translate(506,937)"/>
<path d="M0 0 C32.42526196 19.03928207 52.45902869 51.34601852 62.09765625 87.12890625 C63.22432787 91.96237627 64.20909098 96.81001882 65.125 101.6875 C65.36319458 102.94095215 65.36319458 102.94095215 65.60620117 104.21972656 C69.61427263 126.71215491 69 147.94533758 69 171 C38.64 171 8.28 171 -23 171 C-21.69754176 166.44139616 -20.51081644 162.62032325 -18.6484375 158.37109375 C-10.06719772 138.12502583 -4.49156164 116.48033887 0 95 C0.2259082 93.92556641 0.45181641 92.85113281 0.68457031 91.74414062 C6.23235093 64.11602272 6.69044266 33.56510121 0.3671875 6.02246094 C0 4 0 4 0 0 Z " fill="#FCFCFD" transform="translate(929,376)"/>
<path d="M0 0 C0.04608398 1.02488525 0.09216797 2.04977051 0.13964844 3.10571289 C0.65893915 13.63999658 1.72909637 24.00313426 3.25 34.4375 C3.41523163 35.58478577 3.41523163 35.58478577 3.58380127 36.75524902 C5.12193688 47.33168895 6.9513177 57.6245971 10.29345703 67.79589844 C11.10983935 70.3426502 11.85122749 72.90619556 12.58984375 75.4765625 C16.31588362 88.32464299 20.76990545 100.6918793 26 113 C26.2990625 113.71236816 26.598125 114.42473633 26.90625 115.15869141 C30.44479628 123.56866274 34.27555081 131.77892605 38.51171875 139.86230469 C41 144.68334961 41 144.68334961 41 148 C7.67 148 -25.66 148 -60 148 C-60 129.39623321 -60 129.39623321 -59.1875 122.5625 C-59.09839355 121.77520508 -59.00928711 120.98791016 -58.91748047 120.17675781 C-54.07387437 79.24787652 -39.24789671 40.79929364 -11.078125 10.265625 C-9.18185036 8.19825791 -7.36326283 6.08792551 -5.5625 3.9375 C-2.12765957 0 -2.12765957 0 0 0 Z " fill="#FCFCFC" transform="translate(657,399)"/>
<path d="M0 0 C16.5 0 33 0 50 0 C50 53.46 50 106.92 50 162 C33.5 162 17 162 0 162 C0 108.54 0 55.08 0 0 Z " fill="#2A2B51" transform="translate(1037,937)"/>
<path d="M0 0 C0.7022168 0.10151367 1.40443359 0.20302734 2.12792969 0.30761719 C11.19922739 1.66189683 19.9577596 4.3251971 28.75 6.875 C29.88751709 7.20266357 31.02503418 7.53032715 32.19702148 7.86791992 C39.45116726 10.03184519 46.18969569 12.70972489 53 16 C54.91762655 16.8952646 56.83560156 17.78978315 58.75390625 18.68359375 C60.69063484 19.60044237 62.62683168 20.51841504 64.5625 21.4375 C65.52607422 21.88931641 66.48964844 22.34113281 67.48242188 22.80664062 C73.89490104 25.85505452 79.98577255 29.22806928 86 33 C87.02609375 33.64324219 88.0521875 34.28648437 89.109375 34.94921875 C99.9472029 42.08358771 110.09486189 50.03196767 119.63671875 58.82421875 C121.24574789 60.30558938 122.87435634 61.76590904 124.51953125 63.20703125 C155.02852249 89.9668377 176.34032072 127.57042469 188.33129883 165.9597168 C189.00439678 168.10714586 189.00439678 168.10714586 190.0703125 170.54296875 C191.47229916 174.24821921 192.17628499 178.05651414 192.9375 181.9375 C193.10862305 182.80777832 193.27974609 183.67805664 193.45605469 184.57470703 C196.26751218 199.27334185 198.70226052 213.99716167 198 229 C197.96326172 229.83466797 197.92652344 230.66933594 197.88867188 231.52929688 C197.62965412 237.35514076 197.32801935 243.17765654 197 249 C196.01 249.33 195.02 249.66 194 250 C193.99589111 249.03626465 193.99178223 248.0725293 193.98754883 247.07958984 C193.75260313 210.19484241 188.81454966 176.06799255 174 142 C173.66129883 141.21415527 173.32259766 140.42831055 172.97363281 139.61865234 C164.81607799 120.92135077 154.19912589 103.55990914 141 88 C140.46310547 87.36304199 139.92621094 86.72608398 139.37304688 86.06982422 C131.16302925 76.36343426 122.76132292 67.18091826 113 59 C112.24251465 58.36384766 112.24251465 58.36384766 111.46972656 57.71484375 C97.63798785 46.17366025 83.15474466 36.42725901 67.1875 28.0625 C66.17445801 27.53084229 65.16141602 26.99918457 64.11767578 26.45141602 C57.84302049 23.24085524 51.49739564 20.54321105 44.89160156 18.08789062 C42.65537728 17.24656882 40.48917155 16.35859836 38.31640625 15.37109375 C4.12286509 1.2345414 -39.80851512 -2.03738279 -76 4 C-76.77537109 4.12890625 -77.55074219 4.2578125 -78.34960938 4.390625 C-104.65081165 8.92459123 -129.47393493 17.41439965 -153 30 C-154.15628906 30.61359375 -155.31257812 31.2271875 -156.50390625 31.859375 C-208.54402102 60.5140002 -246.10694695 109.2137456 -265 165 C-265.39590332 166.14710449 -265.39590332 166.14710449 -265.79980469 167.31738281 C-271.9358806 185.36125518 -275.0988283 205.20548105 -275.203125 224.2578125 C-275.20995804 225.11596558 -275.21679108 225.97411865 -275.22383118 226.85827637 C-275.24080408 229.61389143 -275.24715318 232.36933577 -275.25 235.125 C-275.25200409 236.06253113 -275.25400818 237.00006226 -275.256073 237.96600342 C-275.26315126 251.46525122 -274.73006857 264.53918376 -272.36376953 277.86035156 C-271.79138525 281.22704678 -271.39963754 284.60890086 -271 288 C-272.32 288.66 -273.64 289.32 -275 290 C-276.56675359 284.11280468 -277.68105701 278.27552561 -278.5625 272.25 C-278.75102539 271.02410156 -278.75102539 271.02410156 -278.94335938 269.7734375 C-282.1198417 248.41949346 -282.28838055 226.34352898 -279 205 C-278.85997559 204.0104834 -278.71995117 203.0209668 -278.57568359 202.00146484 C-274.59564663 174.31479024 -266.58690777 145.05782492 -251.40234375 121.25390625 C-249.93413575 118.89414019 -248.69657026 116.47704327 -247.4375 114 C-240.15273927 100.5365417 -230.13737714 88.4101152 -220 77 C-219.55978516 76.49807129 -219.11957031 75.99614258 -218.66601562 75.47900391 C-186.36608506 38.73488582 -143.84725955 15.57617757 -97 3 C-96.2879541 2.80680176 -95.5759082 2.61360352 -94.84228516 2.41455078 C-90.92149391 1.37905154 -87.0043301 0.63359653 -83 0 C-82.18080078 -0.13245117 -81.36160156 -0.26490234 -80.51757812 -0.40136719 C-53.67887713 -4.59197138 -26.81077003 -4.09484448 0 0 Z " fill="#34304E" transform="translate(840,235)"/>
<path d="M0 0 C1.98 0.495 1.98 0.495 4 1 C3.41747739 6.24270345 0.88696542 10.4876703 -1.5625 15.0625 C-2.0157666 15.91303955 -2.4690332 16.7635791 -2.93603516 17.63989258 C-6.57655344 24.3824705 -10.50394125 30.78886714 -15 37 C-15.45133301 37.62503418 -15.90266602 38.25006836 -16.36767578 38.89404297 C-22.50126214 47.34669563 -28.87568301 55.35203883 -36 63 C-37.21338219 64.39144666 -38.42197803 65.78708639 -39.625 67.1875 C-45.68166544 74.10150165 -52.22359273 79.98163779 -59.41064453 85.71386719 C-61.07398684 87.05987138 -62.70747589 88.4369499 -64.33984375 89.8203125 C-79.07350872 102.16418434 -95.88236833 111.38041704 -113 120 C-113.94617188 120.47953125 -114.89234375 120.9590625 -115.8671875 121.453125 C-124.25791358 125.48271382 -133.14131942 128.20497533 -142 131 C-142.72558105 131.23251465 -143.45116211 131.4650293 -144.19873047 131.70458984 C-166.65312893 138.85824883 -189.6784347 141.42080868 -213.1875 141.3125 C-214.0375058 141.31034485 -214.8875116 141.3081897 -215.76327515 141.30596924 C-229.36877913 141.25085463 -242.61704699 140.63166549 -256 138 C-257.54204102 137.70198486 -257.54204102 137.70198486 -259.11523438 137.39794922 C-280.07444164 133.22672953 -299.92359445 126.64441884 -319 117 C-319.61391602 116.69094727 -320.22783203 116.38189453 -320.86035156 116.06347656 C-343.53753255 104.5673246 -363.53069681 89.40576185 -382 72 C-382.7321875 71.31035156 -383.464375 70.62070312 -384.21875 69.91015625 C-389.62951995 64.66042112 -394.30066147 58.88453326 -399 53 C-399.65871094 52.20851563 -400.31742188 51.41703125 -400.99609375 50.6015625 C-405.03509671 45.70924905 -408.71233156 40.63558007 -412.25 35.375 C-412.86862915 34.46089355 -412.86862915 34.46089355 -413.49975586 33.52832031 C-416.38173647 29.17582211 -418.73628347 24.70396141 -421 20 C-420.67 19.67 -420.34 19.34 -420 19 C-420.33 18.34 -420.66 17.68 -421 17 C-420.01 16.67 -419.02 16.34 -418 16 C-417.35998047 17.20269531 -417.35998047 17.20269531 -416.70703125 18.4296875 C-408.53198506 33.29647253 -398.68736106 46.70955447 -387 59 C-385.82600924 60.34782201 -384.65879418 61.70159055 -383.5 63.0625 C-375.66773968 72.00327048 -367.13061759 79.55965973 -357.68457031 86.71240234 C-356.17607047 87.86542092 -354.6917425 89.04990413 -353.2109375 90.23828125 C-338.68066567 101.69081539 -321.99857537 110.7758047 -305 118 C-304.28424805 118.30631348 -303.56849609 118.61262695 -302.83105469 118.92822266 C-287.36074441 125.46233033 -271.54042876 129.36671411 -255.125 132.75 C-254.1155835 132.96092285 -253.10616699 133.1718457 -252.06616211 133.38916016 C-238.58850737 136.0668981 -225.06476458 136.24010188 -211.375 136.25 C-210.53073456 136.25067474 -209.68646912 136.25134949 -208.81661987 136.25204468 C-197.44656667 136.2376244 -186.40022864 136.01980969 -175.26269531 133.50488281 C-172.64965909 132.92182726 -170.02627484 132.41056063 -167.3984375 131.8984375 C-116.49176289 121.73052556 -64.82199667 94.27229622 -32.75 52.5 C-32.28456787 51.89744385 -31.81913574 51.2948877 -31.33959961 50.67407227 C-30.36844731 49.41146005 -29.40027734 48.1465485 -28.43505859 46.87939453 C-27.5037491 45.6597245 -26.56687969 44.44427238 -25.62353516 43.23388672 C-15.30031192 29.98457135 -6.52743568 15.49415743 0 0 Z " fill="#322F4C" transform="translate(1012,570)"/>
<path d="M0 0 C10.43717713 3.93149273 18.34591519 23.45861916 23 33 C29 46.49785203 29 46.49785203 29 53 C9.86 53 -9.28 53 -29 53 C-24.03800954 35.63303339 -13.57977689 12.50881657 0 0 Z " fill="#FAFAFB" transform="translate(844,494)"/>
<path d="M0 0 C9.69327816 4.30812363 13.89253962 14.86844261 18 24 C20.57657654 31.72972963 20.47785006 43.20767643 16.9375 50.625 C13.54952555 56.20405764 9.44854324 61.36763784 4 65 C-2.4181701 64.39747791 -8.19246576 58.12284325 -12.3125 53.5625 C-13.23264469 52.39373683 -14.12965901 51.20630849 -15 50 C-15.41378906 49.4534375 -15.82757812 48.906875 -16.25390625 48.34375 C-20.36889275 41.80565298 -20.13912645 33.42377044 -19 26 C-15.83650886 15.24156858 -7.70819468 7.70819468 0 0 Z " fill="#2C2D51" transform="translate(796,787)"/>
<path d="M0 0 C0.64836042 1.74906531 1.29358784 3.49929219 1.9375 5.25 C2.47697266 6.71179688 2.47697266 6.71179688 3.02734375 8.203125 C6.09884564 17.03523484 6.29138806 26.09937919 2.3046875 34.69140625 C-3.21520184 44.45863559 -12.4136099 50.27929632 -23.125 53.4375 C-26.43962596 53.91865538 -29.40822232 54.05744874 -32.7421875 54.03515625 C-33.72815918 54.03008057 -34.71413086 54.02500488 -35.72998047 54.01977539 C-36.85364014 54.00998657 -36.85364014 54.00998657 -38 54 C-38.08837761 50.37515827 -38.14084706 46.75059983 -38.1875 43.125 C-38.21263672 42.11179688 -38.23777344 41.09859375 -38.26367188 40.0546875 C-38.35110794 30.96133664 -36.78232127 23.18123376 -31.9375 15.375 C-31.43089844 14.53710938 -30.92429687 13.69921875 -30.40234375 12.8359375 C-29.93957031 12.23007813 -29.47679687 11.62421875 -29 11 C-28.34 11 -27.68 11 -27 11 C-27 10.34 -27 9.68 -27 9 C-19.47534985 1.7180805 -10.13639662 -0.20272793 0 0 Z " fill="#2B2C51" transform="translate(1020,161)"/>
<path d="M0 0 C12.09404159 -0.51041676 22.61139894 -0.74143146 32.4375 7.375 C40.82810013 15.50874502 43.12596501 24.6845089 43.3125 36.1875 C43.19573777 41.72448767 42.47060019 46.66907431 41 52 C29.49858329 52.19353345 17.92477738 46.99042833 9.3125 39.5625 C2.94227565 33.26721947 -1.60223625 26.47510104 -2.265625 17.34375 C-2.26046875 16.0753125 -2.2553125 14.806875 -2.25 13.5 C-2.25515625 12.2315625 -2.2603125 10.963125 -2.265625 9.65625 C-2.00698139 6.09609683 -1.28821239 3.31254615 0 0 Z " fill="#2C2D51" transform="translate(573,165)"/>
<path d="M0 0 C4.64930527 4.40882397 9.50381196 10.5716262 10.65234375 16.9609375 C9.81777892 21.29506412 6.40993702 22.99548016 3.01953125 25.50390625 C-5.89818326 31.39574797 -14.16814246 32.50992028 -24.8125 31.375 C-34.13920406 29.07003713 -41.82915968 20.31206042 -46.8125 12.5625 C-47.84057011 10.84987359 -48.84406249 9.12203925 -49.8125 7.375 C-50.204375 6.69050781 -50.59625 6.00601563 -51 5.30078125 C-51.8125 3.375 -51.8125 3.375 -51.8125 -0.625 C-48.96077038 -1.61178898 -46.10645658 -2.58956818 -43.25 -3.5625 C-42.45013672 -3.84029297 -41.65027344 -4.11808594 -40.82617188 -4.40429688 C-26.50900373 -9.25460282 -12.48174479 -9.60563805 0 0 Z " fill="#2B2D51" transform="translate(1151.8125,565.625)"/>
<path d="M0 0 C-2.33293772 10.1093968 -12.03155844 19.97633153 -20.43359375 25.640625 C-29.22948313 30.6668475 -39.02084636 31.49676794 -49 30 C-53.76628432 28.43880208 -57.88974767 25.84667652 -62 23 C-59.9310255 10.586153 -54.63689236 0.58797002 -44.4375 -6.875 C-30.39345958 -13.35686481 -11.97976907 -8.53353413 0 0 Z " fill="#2B2C50" transform="translate(499,568)"/>
<path d="M0 0 C0.66 0 1.32 0 2 0 C8.59422389 11.56253681 15.03211943 23.08915307 19.75 35.5625 C20.07226562 36.41094482 20.39453125 37.25938965 20.7265625 38.13354492 C22.47053288 42.9395916 23.25190276 46.76331929 24 52 C7.83 52 -8.34 52 -25 52 C-23.8738018 44.11661261 -23.8738018 44.11661261 -22.6171875 41.08984375 C-22.34076416 40.41711426 -22.06434082 39.74438477 -21.77954102 39.05126953 C-21.48104248 38.35372559 -21.18254395 37.65618164 -20.875 36.9375 C-20.56296631 36.19870605 -20.25093262 35.45991211 -19.92944336 34.69873047 C-15.0402826 23.27063942 -9.61456168 12.89017782 -2 3 C-1.34 2.01 -0.68 1.02 0 0 Z " fill="#F9F9FA" transform="translate(759,495)"/>
<path d="M0 0 C4.99930575 -0.06911483 9.99693391 -0.1287727 14.99633789 -0.16479492 C16.69463742 -0.17982126 18.39289855 -0.20024823 20.09106445 -0.22631836 C22.54127518 -0.26297449 24.99097 -0.27978789 27.44140625 -0.29296875 C28.56839684 -0.31619453 28.56839684 -0.31619453 29.71815491 -0.33988953 C36.24710041 -0.34194364 40.83828709 1.12024964 45.875 5.5 C49.20905331 9.42241566 49.29087113 12.79075157 49.2109375 17.72265625 C48.75326637 22.66380937 46.6175211 25.3824789 43.1875 28.8125 C37.85481951 32.47218269 32.26846105 32.1432188 25.9765625 32.09765625 C25.23038666 32.0962413 24.48421082 32.09482635 23.71542358 32.09336853 C21.35190682 32.08780874 18.98848773 32.07526389 16.625 32.0625 C15.01432429 32.0574798 13.40364709 32.0529178 11.79296875 32.04882812 C7.86191202 32.03870697 3.93106428 32.0191241 0 32 C0 21.44 0 10.88 0 0 Z " fill="#FCFCFD" transform="translate(909,1032)"/>
<path d="M0 0 C5.445 -0.0928125 5.445 -0.0928125 11 -0.1875 C12.12792969 -0.21481201 13.25585938 -0.24212402 14.41796875 -0.27026367 C22.02952058 -0.33266444 27.87391838 0.34962645 33.875 5.4375 C38.1321804 10.57115872 38.44864872 14.50761702 38.3046875 21.08984375 C37.88124331 25.13427864 36.83893457 27.09009207 34 30 C28.37031687 34.22226235 23.86737179 36.13876379 16.796875 36.09765625 C15.91354492 36.09515869 15.03021484 36.09266113 14.12011719 36.09008789 C13.00797852 36.08098389 11.89583984 36.07187988 10.75 36.0625 C7.2025 36.041875 3.655 36.02125 0 36 C0 24.12 0 12.24 0 0 Z " fill="#FBFBFC" transform="translate(556,970)"/>
<path d="M0 0 C4.44801928 -0.06910041 8.89415558 -0.12876017 13.34228516 -0.16479492 C14.85341727 -0.17982543 16.36450618 -0.20025564 17.87548828 -0.22631836 C20.05512187 -0.26295689 22.23417575 -0.27978338 24.4140625 -0.29296875 C25.7232666 -0.3086792 27.0324707 -0.32438965 28.38134766 -0.34057617 C33.59011334 0.14965646 36.81604586 1.68805081 40.3125 5.5625 C43.57674151 10.27751551 43.63258331 14.35874339 43 20 C40.41682962 25.07408467 37.56928967 27.98557436 32.30029297 30.06591797 C28.72466676 31.07792758 25.78069358 31.22814773 22.0703125 31.1953125 C20.90773926 31.19031738 19.74516602 31.18532227 18.54736328 31.18017578 C16.35829346 31.15286377 16.35829346 31.15286377 14.125 31.125 C9.46375 31.08375 4.8025 31.0425 0 31 C0 20.77 0 10.54 0 0 Z " fill="#F9FAFB" transform="translate(909,970)"/>
<path d="M0 0 C5.6838131 0.38159876 11.35798275 0.7712192 17.00976562 1.49194336 C27.28018061 2.7954712 37.3652208 3.28667957 47.71435547 3.20581055 C50.13129244 3.1874522 52.54784382 3.18530288 54.96484375 3.18554688 C65.01201527 3.16224886 74.9801265 2.74946377 85 2 C80.56192762 7.2656569 75.70111318 7.27478247 69.11834717 7.85198975 C62.1067185 8.34189667 55.08776001 8.34121441 48.0625 8.3125 C47.2091507 8.31167419 46.35580139 8.31084839 45.47659302 8.30999756 C13.0511948 8.23788461 13.0511948 8.23788461 -1 3 C-0.67 2.01 -0.34 1.02 0 0 Z " fill="#22203F" transform="translate(751,703)"/>
<path d="M0 0 C0.55945313 0.18175781 1.11890625 0.36351562 1.6953125 0.55078125 C12.60397486 3.97069951 23.57555753 6.32385953 35 7 C32.16135839 9.92734916 29.27714435 12.59955269 26.125 15.1875 C22.13562543 18.61775768 19.32845409 22.48492901 16.4453125 26.86328125 C15 29 15 29 13 31 C11.68 30.01 10.36 29.02 9 28 C9.556875 27.34 10.11375 26.68 10.6875 26 C15.70854128 20.0560856 15.70854128 20.0560856 18 13 C4.5816865 5.77695039 -5.9552186 4.58294754 -21 5 C-18.03651571 3.0243438 -17.31979627 2.73623141 -13.98828125 2.5859375 C-13.23095703 2.54726563 -12.47363281 2.50859375 -11.69335938 2.46875 C-10.90767578 2.4378125 -10.12199219 2.406875 -9.3125 2.375 C-8.51521484 2.33632813 -7.71792969 2.29765625 -6.89648438 2.2578125 C-4.93136525 2.16367506 -2.9657146 2.08075368 -1 2 C-0.67 1.34 -0.34 0.68 0 0 Z " fill="#E8E8EE" transform="translate(480,555)"/>
<path d="M0 0 C0.74636719 0.34289062 1.49273438 0.68578125 2.26171875 1.0390625 C3.14859375 1.43222656 4.03546875 1.82539062 4.94921875 2.23046875 C7.03734593 3.22831077 9.1203329 4.23695127 11.19921875 5.25390625 C25.83220986 12.32972761 40.88522279 17.62704589 56.9921875 20.05859375 C59.94921875 20.6640625 59.94921875 20.6640625 61.94921875 22.6640625 C60.76953125 24.1953125 60.76953125 24.1953125 58.94921875 25.6640625 C37.42592045 25.95393857 12.38619753 12.06330658 -6.05078125 2.6640625 C-2.66720407 -0.43691343 -2.66720407 -0.43691343 0 0 Z " fill="#383452" transform="translate(691.05078125,680.3359375)"/>
<path d="M0 0 C0.33 0 0.66 0 1 0 C1 6.6 1 13.2 1 20 C5.75819045 19.55407408 5.75819045 19.55407408 10.51269531 19.0715332 C13.66573191 18.81839135 15.63424398 18.79529462 18.421875 20.35546875 C20 22 20 22 21 24 C19.783125 24.350625 18.56625 24.70125 17.3125 25.0625 C9.72349763 27.584124 1.61074877 31.21281259 -4 37 C-4.66 37 -5.32 37 -6 37 C-4 27 -4 27 -3.46875 24.6875 C-2.8311702 21.03204249 -2.63929091 17.38920539 -2.4375 13.6875 C-2.39431641 12.94693359 -2.35113281 12.20636719 -2.30664062 11.44335938 C-2.20129568 9.62908536 -2.10021684 7.8145645 -2 6 C-1.67 6 -1.34 6 -1 6 C-0.67 4.02 -0.34 2.04 0 0 Z " fill="#E4E4EA" transform="translate(981,195)"/>
<path d="M0 0 C2.53677451 2.53677451 3.16583005 4.8766469 4.375 8.25 C6.38909104 13.69257993 6.38909104 13.69257993 9.375 18.625 C9.91125 19.40875 10.4475 20.1925 11 21 C10.67 21.99 10.34 22.98 10 24 C5.68607774 23.5206753 3.83430453 22.2542015 1 19 C-2.09762743 20.37521042 -4.19991737 21.95427776 -6.5625 24.375 C-7.1709375 24.99375 -7.779375 25.6125 -8.40625 26.25 C-10.10221304 28.02074405 -10.10221304 28.02074405 -11.5625 30.375 C-13.69797508 32.78901531 -15.89410044 32.72392004 -19 33 C-18.175 32.13375 -17.35 31.2675 -16.5 30.375 C-8.99569169 21.59336262 -4.07778467 10.70418477 0 0 Z " fill="#EBECF1" transform="translate(797,769)"/>
<path d="M0 0 C0.33 0 0.66 0 1 0 C1 8.25 1 16.5 1 25 C1.66 25 2.32 25 3 25 C3.33 18.07 3.66 11.14 4 4 C4.33 4 4.66 4 5 4 C5.02187378 5.18251343 5.02187378 5.18251343 5.04418945 6.38891602 C5.37816747 22.65470778 6.18698557 38.55782281 8.65234375 54.66699219 C9.16454976 58.10423979 9.58375084 61.54993486 10 65 C8.02 65.99 8.02 65.99 6 67 C4.43324641 61.11280468 3.31894299 55.27552561 2.4375 49.25 C2.31181641 48.43273437 2.18613281 47.61546875 2.05664062 46.7734375 C0.36769464 35.41947604 -0.14346632 24.22230468 -0.0625 12.75 C-0.05798828 11.51636719 -0.05347656 10.28273438 -0.04882812 9.01171875 C-0.03718487 6.00775931 -0.02083376 3.00390734 0 0 Z " fill="#34314E" transform="translate(559,458)"/>
<path d="M0 0 C16.14752314 0.92621074 31.94753212 4.14990694 47.359375 9.01953125 C46.699375 10.33953125 46.039375 11.65953125 45.359375 13.01953125 C44.18503906 12.76558594 43.01070312 12.51164063 41.80078125 12.25 C24.33905617 8.50206403 7.16163521 5.58436281 -10.640625 4.01953125 C-10.640625 3.68953125 -10.640625 3.35953125 -10.640625 3.01953125 C-9.50625 2.71015625 -8.371875 2.40078125 -7.203125 2.08203125 C-0.22784727 0.00168526 -0.22784727 0.00168526 0 0 Z " fill="#353250" transform="translate(821.640625,232.98046875)"/>
<path d="M0 0 C1.04125534 -0.00143509 1.04125534 -0.00143509 2.10354614 -0.00289917 C3.57114757 -0.00357908 5.03875202 -0.00173795 6.50634766 0.00244141 C8.74258259 0.00777617 10.97861519 0.00249846 13.21484375 -0.00390625 C14.64322961 -0.00324512 16.07161534 -0.00196323 17.5 0 C18.79534668 0.00112793 20.09069336 0.00225586 21.42529297 0.00341797 C24.38714647 0.11426265 27.01057059 0.44003463 29.8828125 1.1328125 C29.2228125 2.1228125 28.5628125 3.1128125 27.8828125 4.1328125 C25.04553925 4.39948789 22.42898205 4.48072484 19.59375 4.42578125 C18.77532623 4.42153641 17.95690247 4.41729156 17.11367798 4.41291809 C14.49472414 4.39609929 11.87653448 4.35844224 9.2578125 4.3203125 C7.4843861 4.30526976 5.71094766 4.29158064 3.9375 4.27929688 C-0.4143578 4.24618542 -4.76564301 4.19438202 -9.1171875 4.1328125 C-9.4471875 3.1428125 -9.7771875 2.1528125 -10.1171875 1.1328125 C-6.57338337 -0.04845554 -3.73927879 0.00326168 0 0 Z " fill="#2B2B48" transform="translate(789.1171875,231.8671875)"/>
<path d="M0 0 C7.49413134 0.50313956 14.96787656 1.15388728 22.4375 1.9375 C23.19401855 2.01210449 23.95053711 2.08670898 24.72998047 2.16357422 C29.06142559 2.63290209 32.89475175 3.4450803 37 5 C37 5.33 37 5.66 37 6 C28.83469625 6.87952326 21.09915322 7.16205254 12.9375 6.1875 C11.88574585 6.0639917 11.88574585 6.0639917 10.81274414 5.93798828 C6.67947545 5.38966212 2.90795562 4.44490715 -1 3 C-0.67 2.01 -0.34 1.02 0 0 Z " fill="#353452" transform="translate(751,703)"/>
<path d="M0 0 C2.21467793 13.84173709 0.78434153 28.07793776 0 42 C-1.485 42.495 -1.485 42.495 -3 43 C-3.21698236 37.35883874 -3.41385617 31.71747144 -3.59204102 26.07495117 C-3.65550909 24.15516358 -3.72449015 22.23555006 -3.79907227 20.31616211 C-3.90526548 17.55870199 -3.99168026 14.8012256 -4.07421875 12.04296875 C-4.11157639 11.18350143 -4.14893402 10.32403412 -4.18742371 9.43852234 C-4.20767105 8.63791885 -4.2279184 7.83731537 -4.2487793 7.01245117 C-4.27320602 6.3085173 -4.29763275 5.60458344 -4.32279968 4.87931824 C-3.94069012 2.65470184 -2.58525482 0 0 0 Z " fill="#403E5A" transform="translate(1037,442)"/>
<path d="M0 0 C16.83 0 33.66 0 51 0 C51.06058594 4.00769531 51.12117187 8.01539063 51.18359375 12.14453125 C51.23455915 15.3394187 51.28647797 18.53428748 51.33904266 21.72914886 C51.3942744 25.10203368 51.44782467 28.47492603 51.49731445 31.84790039 C51.55496637 35.71769614 51.61867568 39.58735144 51.68359375 43.45703125 C51.70030624 44.66647903 51.71701874 45.87592682 51.73423767 47.12202454 C51.7641555 48.80342781 51.7641555 48.80342781 51.79467773 50.51879883 C51.81799416 52.00105705 51.81799416 52.00105705 51.84178162 53.51325989 C51.90213783 56.13199956 51.90213783 56.13199956 53 59 C52.01 59.66 51.02 60.32 50 61 C50 41.2 50 21.4 50 1 C33.5 1 17 1 0 1 C0 0.67 0 0.34 0 0 Z " fill="#D7D7E2" transform="translate(670,936)"/>
<path d="M0 0 C0.33 0 0.66 0 1 0 C1 1.98 1 3.96 1 6 C1.66 6.33 2.32 6.66 3 7 C2.01 7 1.02 7 0 7 C0.33 7.99 0.66 8.98 1 10 C1.66 10.33 2.32 10.66 3 11 C2.00318287 17.45810245 0.98363508 23.76571832 -1 30 C-2.65 30.33 -4.3 30.66 -6 31 C-5.72736328 29.77990234 -5.72736328 29.77990234 -5.44921875 28.53515625 C-3.37150802 19.06292631 -1.63151794 9.55768664 0 0 Z " fill="#3F3C59" transform="translate(1031,506)"/>
<path d="M0 0 C0 0.66 0 1.32 0 2 C0.99 2.66 1.98 3.32 3 4 C-0.24709194 4.70174756 -3.49800252 5.38388069 -6.75 6.0625 C-7.67039062 6.26166016 -8.59078125 6.46082031 -9.5390625 6.66601562 C-10.42851563 6.84970703 -11.31796875 7.03339844 -12.234375 7.22265625 C-13.05131836 7.39547119 -13.86826172 7.56828613 -14.70996094 7.74633789 C-17.10200494 8.01129884 -18.72525071 7.73312703 -21 7 C-20.01 6.34 -19.02 5.68 -18 5 C-18.99 4.34 -19.98 3.68 -21 3 C-18.06298109 2.49702428 -15.12544669 1.99750127 -12.1875 1.5 C-11.35412109 1.35691406 -10.52074219 1.21382812 -9.66210938 1.06640625 C-8.45844727 0.86337891 -8.45844727 0.86337891 -7.23046875 0.65625 C-6.12288208 0.46772461 -6.12288208 0.46772461 -4.99291992 0.27539062 C-3 0 -3 0 0 0 Z " fill="#2D2A47" transform="translate(853,701)"/>
<path d="M0 0 C0 0.99 0 1.98 0 3 C-2.5598501 4.15208295 -5.12258513 5.29679373 -7.6875 6.4375 C-8.40873047 6.76298828 -9.12996094 7.08847656 -9.87304688 7.42382812 C-13.56546832 9.0592842 -16.96466087 10.43489334 -21 11 C-20.01 10.67 -19.02 10.34 -18 10 C-18 9.34 -18 8.68 -18 8 C-18.66 7.67 -19.32 7.34 -20 7 C-18.06374902 6.01836578 -16.12595461 5.03977546 -14.1875 4.0625 C-13.10855469 3.51722656 -12.02960937 2.97195312 -10.91796875 2.41015625 C-7.03277307 0.53257172 -4.27588751 -0.11556453 0 0 Z " fill="#35314E" transform="translate(712,250)"/>
<path d="M0 0 C2.475 0.99 2.475 0.99 5 2 C3.43739594 5.56572947 1.29649508 8.25556603 -1.25 11.1875 C-1.99765625 12.06792969 -2.7453125 12.94835937 -3.515625 13.85546875 C-6.39642967 16.34220108 -8.25610502 16.7240771 -12 17 C-11.13375 16.05125 -10.2675 15.1025 -9.375 14.125 C-5.62965751 9.78218621 -2.82235671 4.97415349 0 0 Z " fill="#EAE9F0" transform="translate(790,785)"/>
<path d="M0 0 C0.33 0.66 0.66 1.32 1 2 C1.99 2.33 2.98 2.66 4 3 C-0.94178081 6.29452054 -6.02310798 9.2528885 -12 10 C-12.99 8.68 -13.98 7.36 -15 6 C-10.05 4.02 -5.1 2.04 0 0 Z " fill="#3E3B56" transform="translate(895,686)"/>
<path d="M0 0 C3 3 3 3 3.35644531 5.09375 C3.34709961 5.8878125 3.33775391 6.681875 3.328125 7.5 C3.32361328 8.38276611 3.31910156 9.26553223 3.31445312 10.17504883 C3.29318359 11.10728271 3.27191406 12.0395166 3.25 13 C3.23356445 14.41671997 3.23356445 14.41671997 3.21679688 15.86206055 C3.11533138 22.27037859 2.83407757 28.64015853 2 35 C1.01 34.67 0.02 34.34 -1 34 C-0.67 22.78 -0.34 11.56 0 0 Z " fill="#211E3D" transform="translate(1035,461)"/>
<path d="M0 0 C21.78 0 43.56 0 66 0 C65.01 1.32 64.02 2.64 63 4 C62.34 3.67 61.68 3.34 61 3 C61.33 2.34 61.66 1.68 62 1 C41.54 1 21.08 1 0 1 C0 0.67 0 0.34 0 0 Z " fill="#24213B" transform="translate(772,937)"/>
<path d="M0 0 C1.12535156 0.00580078 1.12535156 0.00580078 2.2734375 0.01171875 C3.02367187 0.00785156 3.77390625 0.00398437 4.546875 0 C10.14682697 0.01010822 10.14682697 0.01010822 11.2734375 1.13671875 C13.12235696 1.37035756 14.97831781 1.5497551 16.8359375 1.69921875 C18.35380859 1.82490234 18.35380859 1.82490234 19.90234375 1.953125 C21.07603516 2.04400391 21.07603516 2.04400391 22.2734375 2.13671875 C22.2734375 2.46671875 22.2734375 2.79671875 22.2734375 3.13671875 C9.4034375 3.13671875 -3.4665625 3.13671875 -16.7265625 3.13671875 C-16.7265625 2.80671875 -16.7265625 2.47671875 -16.7265625 2.13671875 C-16.01628906 2.07613281 -15.30601562 2.01554688 -14.57421875 1.953125 C-13.19556641 1.82744141 -13.19556641 1.82744141 -11.7890625 1.69921875 C-10.87253906 1.61800781 -9.95601562 1.53679688 -9.01171875 1.453125 C-5.82221587 1.01150152 -3.55486115 0.00641672 0 0 Z " fill="#3A3B56" transform="translate(795.7265625,707.86328125)"/>
<path d="M0 0 C0.33 0 0.66 0 1 0 C1 8.25 1 16.5 1 25 C1.66 25 2.32 25 3 25 C3.33 18.07 3.66 11.14 4 4 C4.33 4 4.66 4 5 4 C5.05787784 7.62493334 5.0935542 11.24974857 5.125 14.875 C5.14175781 15.90753906 5.15851562 16.94007813 5.17578125 18.00390625 C5.18222656 18.99003906 5.18867187 19.97617187 5.1953125 20.9921875 C5.20578613 21.90339355 5.21625977 22.81459961 5.22705078 23.75341797 C5 26 5 26 3 28 C2.53709779 30.66242821 2.53709779 30.66242821 2.375 33.625 C2.30023437 34.62789063 2.22546875 35.63078125 2.1484375 36.6640625 C2.09945312 37.43492187 2.05046875 38.20578125 2 39 C1.67 39 1.34 39 1 39 C0.10572192 30.2286141 -0.12469647 21.56276164 -0.0625 12.75 C-0.05798828 11.51636719 -0.05347656 10.28273438 -0.04882812 9.01171875 C-0.03718487 6.00775931 -0.02083376 3.00390734 0 0 Z " fill="#6D6B80" transform="translate(559,458)"/>
<path d="M0 0 C1.86591797 0.07250977 1.86591797 0.07250977 3.76953125 0.14648438 C5.69732422 0.2305957 5.69732422 0.2305957 7.6640625 0.31640625 C8.97246094 0.36861328 10.28085937 0.42082031 11.62890625 0.47460938 C14.84922328 0.60389218 18.0691993 0.73884315 21.2890625 0.87890625 C21.2890625 1.20890625 21.2890625 1.53890625 21.2890625 1.87890625 C12.8740625 2.37390625 12.8740625 2.37390625 4.2890625 2.87890625 C4.2890625 3.20890625 4.2890625 3.53890625 4.2890625 3.87890625 C-2.1459375 4.37390625 -2.1459375 4.37390625 -8.7109375 4.87890625 C-9.0409375 3.88890625 -9.3709375 2.89890625 -9.7109375 1.87890625 C-10.7009375 1.54890625 -11.6909375 1.21890625 -12.7109375 0.87890625 C-8.37154127 0.02539587 -4.41473964 -0.18225989 0 0 Z " fill="#353554" transform="translate(777.7109375,233.12109375)"/>
<path d="M0 0 C0.66 0 1.32 0 2 0 C0.46462136 3.75696002 -1.81248385 5.93533035 -4.8125 8.625 C-5.66457031 9.40101563 -6.51664063 10.17703125 -7.39453125 10.9765625 C-9.89485926 12.91834648 -12.01522106 14.00328746 -15 15 C-13.72056687 9.49843753 -11.56305409 7.24678849 -7 4 C-5.02288349 2.95548562 -3.02749004 1.94301862 -1 1 C-0.67 0.67 -0.34 0.34 0 0 Z " fill="#2F2B49" transform="translate(959,646)"/>
<path d="M0 0 C2.53541298 0.09086451 5.03554784 0.2370945 7.5625 0.4375 C8.62887695 0.51581055 8.62887695 0.51581055 9.71679688 0.59570312 C11.47821999 0.72574107 13.23916173 0.86226897 15 1 C15.33 1.99 15.66 2.98 16 4 C7.83382806 4.84388104 0.15002924 5.06162705 -8 4 C-8 3.67 -8 3.34 -8 3 C-6.865625 2.690625 -5.73125 2.38125 -4.5625 2.0625 C-1.21224901 1.37075469 -1.21224901 1.37075469 0 0 Z " fill="#3D3A56" transform="translate(819,233)"/>
<path d="M0 0 C7.59762024 -0.38999191 13.84466021 0.39241413 21 3 C14.21973975 6.77180041 7.13635517 4.85016615 0 3 C0 2.01 0 1.02 0 0 Z " fill="#2B2845" transform="translate(829,235)"/>
<path d="M0 0 C0.34375 2.23046875 0.34375 2.23046875 0 5 C-2.40625 7.23828125 -2.40625 7.23828125 -5.5 9.3125 C-6.5209375 10.00988281 -7.541875 10.70726562 -8.59375 11.42578125 C-9.3878125 11.94527344 -10.181875 12.46476563 -11 13 C-11.66 11.68 -12.32 10.36 -13 9 C-4.66666667 0 -4.66666667 0 0 0 Z " fill="#383551" transform="translate(945,657)"/>
<path d="M0 0 C0.33 0 0.66 0 1 0 C3.48577137 7.76803553 4.61370506 17.15888482 2 25 C1.34 25 0.68 25 0 25 C0 16.75 0 8.5 0 0 Z " fill="#262345" transform="translate(560,458)"/>
<path d="M0 0 C1.88138672 0.05414063 1.88138672 0.05414063 3.80078125 0.109375 C5.22970703 0.17898438 5.22970703 0.17898438 6.6875 0.25 C7.0175 0.91 7.3475 1.57 7.6875 2.25 C6.79546875 2.27578125 5.9034375 2.3015625 4.984375 2.328125 C3.81390625 2.38484375 2.6434375 2.4415625 1.4375 2.5 C-0.30273438 2.56960938 -0.30273438 2.56960938 -2.078125 2.640625 C-5.82285883 3.34615456 -6.98325539 4.30548323 -9.3125 7.25 C-10.54762079 9.38309192 -10.54762079 9.38309192 -11.3125 11.25 C-11.6425 11.25 -11.9725 11.25 -12.3125 11.25 C-12.625 8 -12.625 8 -12.3125 4.25 C-8.45047845 0.09540106 -5.53323628 -0.20684995 0 0 Z " fill="#3B3B56" transform="translate(642.3125,344.75)"/>
<path d="M0 0 C0.78503906 0.27199219 1.57007813 0.54398438 2.37890625 0.82421875 C3.16136719 1.08847656 3.94382812 1.35273438 4.75 1.625 C6.94140625 2.51171875 6.94140625 2.51171875 9.94140625 4.51171875 C8.95140625 5.99671875 8.95140625 5.99671875 7.94140625 7.51171875 C6.50209508 7.05910517 5.06501626 6.59938896 3.62890625 6.13671875 C2.82839844 5.88148438 2.02789063 5.62625 1.203125 5.36328125 C-1.05859375 4.51171875 -1.05859375 4.51171875 -4.05859375 2.51171875 C-4.05859375 1.85171875 -4.05859375 1.19171875 -4.05859375 0.51171875 C-2.05859375 -0.48828125 -2.05859375 -0.48828125 0 0 Z " fill="#2F2A49" transform="translate(886.05859375,248.48828125)"/>
<path d="M0 0 C0.66 0.33 1.32 0.66 2 1 C1.67 1.33 1.34 1.66 1 2 C3.97 2.495 3.97 2.495 7 3 C7 3.33 7 3.66 7 4 C6.10539062 4.18175781 5.21078125 4.36351562 4.2890625 4.55078125 C-2.29325807 5.91917412 -8.67662583 7.37667446 -15.01171875 9.64453125 C-17 10 -17 10 -20 8 C-18.96552734 7.76216797 -18.96552734 7.76216797 -17.91015625 7.51953125 C-11.93273505 6.0354253 -6.99718963 4.17544664 -1.77734375 0.890625 C-1.19082031 0.59671875 -0.60429688 0.3028125 0 0 Z " fill="#C5C4D5" transform="translate(1118,555)"/>
<path d="M0 0 C0.33 0 0.66 0 1 0 C1.02699725 2.27076842 1.04639453 4.54162821 1.0625 6.8125 C1.07410156 8.07707031 1.08570313 9.34164062 1.09765625 10.64453125 C1 14 1 14 0 17 C-0.99 17.33 -1.98 17.66 -3 18 C-5.42857143 11.71428571 -5.42857143 11.71428571 -4 8 C-3.34 8.33 -2.68 8.66 -2 9 C-1.34 6.03 -0.68 3.06 0 0 Z " fill="#474562" transform="translate(574,529)"/>
<path d="M0 0 C2.31 0.66 4.62 1.32 7 2 C6.67 2.99 6.34 3.98 6 5 C7.32 5 8.64 5 10 5 C10 5.66 10 6.32 10 7 C11.65 7.33 13.3 7.66 15 8 C10.9255567 9.35814777 8.18531884 7.94745762 4.3125 6.5625 C3.61060547 6.31951172 2.90871094 6.07652344 2.18554688 5.82617188 C0.45421468 5.2255056 -1.27328137 4.61380281 -3 4 C-3 3.34 -3 2.68 -3 2 C-2.01 2 -1.02 2 0 2 C0 1.34 0 0.68 0 0 Z " fill="#4A4560" transform="translate(721,694)"/>
<path d="M0 0 C2.28062828 3.42094242 2.21925007 4.68187222 2.125 8.6875 C2.10695313 9.68136719 2.08890625 10.67523438 2.0703125 11.69921875 C2.03550781 12.83810547 2.03550781 12.83810547 2 14 C1.01 14 0.02 14 -1 14 C-2.10228696 9.59085217 -2.07654536 5.51617599 -2 1 C-1.34 0.67 -0.68 0.34 0 0 Z " fill="#232344" transform="translate(1034,431)"/>
<path d="M0 0 C1.32 1.32 2.64 2.64 4 4 C3.953125 6.578125 3.953125 6.578125 3.25 9.25 C3.02828125 10.14203125 2.8065625 11.0340625 2.578125 11.953125 C2.38734375 12.62859375 2.1965625 13.3040625 2 14 C0.68 13.34 -0.64 12.68 -2 12 C-1.34 8.04 -0.68 4.08 0 0 Z " fill="#3A3857" transform="translate(567,409)"/>
<path d="M0 0 C-0.99 3.3 -1.98 6.6 -3 10 C-4.65 10.33 -6.3 10.66 -8 11 C-7.57781184 9.3501725 -7.13675575 7.70516335 -6.6875 6.0625 C-6.44386719 5.14597656 -6.20023438 4.22945313 -5.94921875 3.28515625 C-5.47935547 2.15400391 -5.47935547 2.15400391 -5 1 C-2 0 -2 0 0 0 Z " fill="#393553" transform="translate(580,384)"/>
<path d="M0 0 C4.62 1.32 9.24 2.64 14 4 C13.01 5.485 13.01 5.485 12 7 C8.87709365 6.51421457 6.00419641 6.0013988 3 5 C3 4.34 3 3.68 3 3 C1.68 3 0.36 3 -1 3 C-0.67 2.01 -0.34 1.02 0 0 Z " fill="#292544" transform="translate(728,696)"/>
<path d="M0 0 C0 0.66 0 1.32 0 2 C0.66 2.33 1.32 2.66 2 3 C0.75823305 3.70226141 -0.49385599 4.38629109 -1.75 5.0625 C-2.79414062 5.63677734 -2.79414062 5.63677734 -3.859375 6.22265625 C-6.36140628 7.1312406 -7.5332355 6.88336837 -10 6 C-9.67 5.01 -9.34 4.02 -9 3 C-2.88888889 0 -2.88888889 0 0 0 Z " fill="#34314D" transform="translate(906,682)"/>
<path d="M0 0 C0.66 0 1.32 0 2 0 C2.69685498 1.6210103 3.38222861 3.24696066 4.0625 4.875 C4.63677734 6.23238281 4.63677734 6.23238281 5.22265625 7.6171875 C6 10 6 10 5 12 C1.59604125 10.38759849 0.21658011 9.45199326 -1.4375 6 C-2 3 -2 3 0 0 Z " fill="#3E3A59" transform="translate(1017,375)"/>
<path d="M0 0 C0.33 0 0.66 0 1 0 C1 4.29 1 8.58 1 13 C0.34 13 -0.32 13 -1 13 C-1.33 13.99 -1.66 14.98 -2 16 C-2.05384521 13.70858714 -2.09272087 11.41681812 -2.125 9.125 C-2.14820313 7.84882813 -2.17140625 6.57265625 -2.1953125 5.2578125 C-2 2 -2 2 0 0 Z " fill="#1D1C3F" transform="translate(563,484)"/>
<path d="M0 0 C0.99 0.33 1.98 0.66 3 1 C2.67 4.96 2.34 8.92 2 13 C-1 10 -1 10 -1.328125 8.02734375 C-1.11111111 2.22222222 -1.11111111 2.22222222 0 0 Z " fill="#282646" transform="translate(565,421)"/>
<path d="M0 0 C2.09785412 2.55390936 3.78252874 4.62919544 4 8 C3.01 8.99 2.02 9.98 1 11 C-0.32 8.03 -1.64 5.06 -3 2 C-2.01 1.34 -1.02 0.68 0 0 Z " fill="#353250" transform="translate(1014,367)"/>
<path d="M0 0 C0 3 0 3 -1 6 C-1.66 6 -2.32 6 -3 6 C-2.67 7.32 -2.34 8.64 -2 10 C-3.96466413 11.06775224 -5.96855359 12.06553465 -8 13 C-8.66 12.67 -9.32 12.34 -10 12 C-8.52149287 10.18696196 -7.04217625 8.37458402 -5.5625 6.5625 C-4.32693359 5.04849609 -4.32693359 5.04849609 -3.06640625 3.50390625 C-1 1 -1 1 0 0 Z " fill="#3A3954" transform="translate(550,237)"/>
<path d="M0 0 C0.33 0.66 0.66 1.32 1 2 C0.34 2 -0.32 2 -1 2 C-1 2.66 -1 3.32 -1 4 C-4.63 3.67 -8.26 3.34 -12 3 C-8.66016409 -2.00975387 -5.48699409 -1.11772102 0 0 Z " fill="#47445F" transform="translate(855,238)"/>
<path d="M0 0 C0.33 0 0.66 0 1 0 C0.67 5.28 0.34 10.56 0 16 C-0.33 16 -0.66 16 -1 16 C-1.99 11.71 -2.98 7.42 -4 3 C-3.34 3 -2.68 3 -2 3 C-1.67 2.34 -1.34 1.68 -1 1 C-0.67 0.67 -0.34 0.34 0 0 Z " fill="#E5E5EE" transform="translate(574,524)"/>
<path d="M0 0 C2.25173582 3.37760373 2.8366795 5.98222224 3.6875 9.9375 C3.95949219 11.16339844 4.23148438 12.38929688 4.51171875 13.65234375 C4.94523901 16.62455864 5.03095906 18.23924385 4 21 C0.12474744 14.09194109 -0.13549656 7.72330364 0 0 Z " fill="#45455F" transform="translate(1011,452)"/>
<path d="M0 0 C2.475 0.99 2.475 0.99 5 2 C3.63016497 5.16115776 3.0109362 5.9927092 0 8 C-1.66666667 8 -3.33333333 8 -5 8 C-3.35 5.36 -1.7 2.72 0 0 Z " fill="#DEDFE7" transform="translate(790,785)"/>
<path d="M0 0 C6.625 -0.125 6.625 -0.125 10 1 C10 1.99 10 2.98 10 4 C8.741875 4.04125 7.48375 4.0825 6.1875 4.125 C5.47980469 4.14820313 4.77210938 4.17140625 4.04296875 4.1953125 C2 4 2 4 -1 2 C-0.67 1.34 -0.34 0.68 0 0 Z " fill="#262343" transform="translate(751,703)"/>
<path d="M0 0 C0 0.66 0 1.32 0 2 C0.99 2.66 1.98 3.32 3 4 C0.24921116 4.91692961 -1.35948913 5.10886083 -4.1875 5.0625 C-6.0746875 5.0315625 -6.0746875 5.0315625 -8 5 C-7.34 4.67 -6.68 4.34 -6 4 C-6 3.34 -6 2.68 -6 2 C-6.99 1.67 -7.98 1.34 -9 1 C-5.94152152 0.45627049 -3.11227195 0 0 0 Z " fill="#494562" transform="translate(853,701)"/>
<path d="M0 0 C0.66 0.33 1.32 0.66 2 1 C-0.75 7.875 -0.75 7.875 -3 9 C-4.67654729 8.72057545 -6.34608154 8.39171753 -8 8 C-7.67 7.34 -7.34 6.68 -7 6 C-6.34 6 -5.68 6 -5 6 C-5 5.34 -5 4.68 -5 4 C-3.37373596 2.61767557 -1.7074998 1.28062485 0 0 Z " fill="#383856" transform="translate(998,166)"/>
<path d="M0 0 C1.32 0.33 2.64 0.66 4 1 C3.125 5.75 3.125 5.75 2 8 C0.35 8 -1.3 8 -3 8 C-2.01 5.36 -1.02 2.72 0 0 Z " fill="#363450" transform="translate(1012,570)"/>
<path d="M0 0 C0.66 0.99 1.32 1.98 2 3 C0.35 4.65 -1.3 6.3 -3 8 C-4.32 7.34 -5.64 6.68 -7 6 C-2.25 1.125 -2.25 1.125 0 0 Z " fill="#373552" transform="translate(988,614)"/>
<path d="M0 0 C0.66 0 1.32 0 2 0 C2 1.32 2 2.64 2 4 C2.66 4.33 3.32 4.66 4 5 C3.25 6.9375 3.25 6.9375 2 9 C0.68 9.33 -0.64 9.66 -2 10 C-1.34 6.7 -0.68 3.4 0 0 Z " fill="#45425E" transform="translate(1027,527)"/>
<path d="M0 0 C0.33 0 0.66 0 1 0 C1.04898438 0.68707031 1.09796875 1.37414062 1.1484375 2.08203125 C1.22320313 2.98308594 1.29796875 3.88414062 1.375 4.8125 C1.44460938 5.70582031 1.51421875 6.59914063 1.5859375 7.51953125 C1.86645036 10.24398499 1.86645036 10.24398499 4 13 C3.625 16.6875 3.625 16.6875 3 20 C-0.1108633 15.33370504 -0.12311555 11.20351549 -0.0625 5.6875 C-0.05347656 4.61886719 -0.04445313 3.55023438 -0.03515625 2.44921875 C-0.02355469 1.64097656 -0.01195312 0.83273437 0 0 Z " fill="#43405E" transform="translate(560,446)"/>
<path d="M0 0 C0.33 0 0.66 0 1 0 C1.33 7.59 1.66 15.18 2 23 C1.67 23 1.34 23 1 23 C1 20.69 1 18.38 1 16 C0.34 16 -0.32 16 -1 16 C-0.67 10.72 -0.34 5.44 0 0 Z " fill="#706F83" transform="translate(1136,446)"/>
<path d="M0 0 C0.75 1.625 0.75 1.625 1 4 C-0.9375 7.25 -0.9375 7.25 -3 10 C-5 7 -5 7 -4.875 5 C-3.76097537 2.45365799 -2.30449377 1.48677017 0 0 Z " fill="#2F2C49" transform="translate(598,344)"/>
<path d="M0 0 C6.75 1.625 6.75 1.625 9 5 C6.75 5.6875 6.75 5.6875 4 6 C1.6875 4.75 1.6875 4.75 0 3 C0 2.01 0 1.02 0 0 Z " fill="#2D2B4B" transform="translate(657,662)"/>
<path d="M0 0 C0.33 0.99 0.66 1.98 1 3 C-3.455 3.495 -3.455 3.495 -8 4 C-8 3.34 -8 2.68 -8 2 C-8.66 1.67 -9.32 1.34 -10 1 C-3.29970902 -1.58874879 -3.29970902 -1.58874879 0 0 Z " fill="#3E3C57" transform="translate(729,244)"/>
<path d="M0 0 C0.66 0.66 1.32 1.32 2 2 C1.01 3.485 1.01 3.485 0 5 C-0.33 5.66 -0.66 6.32 -1 7 C-2.5234375 8.32421875 -2.5234375 8.32421875 -4.375 9.6875 C-4.98085938 10.14511719 -5.58671875 10.60273437 -6.2109375 11.07421875 C-6.80132813 11.37972656 -7.39171875 11.68523438 -8 12 C-8.99 11.67 -9.98 11.34 -11 11 C-10.113125 10.484375 -9.22625 9.96875 -8.3125 9.4375 C-4.51587629 6.93948392 -2.46826698 3.77499656 0 0 Z " fill="#E0E2EA" transform="translate(995,997)"/>
<path d="M0 0 C-1.75 3.875 -1.75 3.875 -4 5 C-4 4.34 -4 3.68 -4 3 C-5.98 4.32 -7.96 5.64 -10 7 C-10.66 6.67 -11.32 6.34 -12 6 C-5.07692308 0 -5.07692308 0 0 0 Z " fill="#3E3955" transform="translate(965,643)"/>
<path d="M0 0 C2.12038635 2.61514317 4.13091744 5.19637616 6 8 C4.02 8.99 4.02 8.99 2 10 C0 8 0 8 -0.1953125 6.0546875 C-0.13020833 4.03645833 -0.06510417 2.01822917 0 0 Z " fill="#393553" transform="translate(607,608)"/>
<path d="M0 0 C1.8125 0.75 1.8125 0.75 2.8125 2.75 C-0.09350261 4.00664978 -1.98354584 4.75 -5.1875 4.75 C-5.5175 3.76 -5.8475 2.77 -6.1875 1.75 C-3.9127187 0.36888278 -2.68578639 -0.30694702 0 0 Z " fill="#2A2743" transform="translate(880.1875,693.25)"/>
<path d="M0 0 C0.8125 1.625 0.8125 1.625 1 4 C-1.86287501 8.2101103 -3.98169616 10.5661989 -9 12 C-6 8 -3 4 0 0 Z " fill="#E1E2EB" transform="translate(991,614)"/>
<path d="M0 0 C0.99 0.33 1.98 0.66 3 1 C2.67 4.3 2.34 7.6 2 11 C1.34 11 0.68 11 0 11 C-1.05404945 7.01803543 -0.84098656 4.01804691 0 0 Z " fill="#2A2B4B" transform="translate(1033,496)"/>
<path d="M0 0 C4.92127034 -0.16682272 8.50343896 -0.24828052 13 2 C13 2.66 13 3.32 13 4 C8.71 3.34 4.42 2.68 0 2 C0 1.34 0 0.68 0 0 Z " fill="#3D3C57" transform="translate(848,207)"/>
<path d="M0 0 C0.66 0.33 1.32 0.66 2 1 C2.05389087 2.95803507 2.09274217 4.91648909 2.125 6.875 C2.14820313 7.96554688 2.17140625 9.05609375 2.1953125 10.1796875 C2 13 2 13 0 15 C-1.0024305 9.65370398 -0.84888195 5.37625234 0 0 Z " fill="#32314B" transform="translate(1023,175)"/>
<path d="M0 0 C0.33 0.66 0.66 1.32 1 2 C1.66 2 2.32 2 3 2 C3.66 3.98 4.32 5.96 5 8 C3.35 8 1.7 8 0 8 C-1.125 5.6875 -1.125 5.6875 -2 3 C-1.34 2.01 -0.68 1.02 0 0 Z " fill="#363551" transform="translate(584,570)"/>
<path d="M0 0 C0.598125 0.20625 1.19625 0.4125 1.8125 0.625 C0.67945008 4.02414975 -0.31268475 4.67754451 -3.1875 6.625 C-3.8475 6.295 -4.5075 5.965 -5.1875 5.625 C-5.1875 4.305 -5.1875 2.985 -5.1875 1.625 C-2.1875 -0.375 -2.1875 -0.375 0 0 Z " fill="#2F2B48" transform="translate(649.1875,286.375)"/>
<path d="M0 0 C1.65 0.33 3.3 0.66 5 1 C-0.14285714 6.57142857 -0.14285714 6.57142857 -4 7 C-4 6.01 -4 5.02 -4 4 C-3.01 3.67 -2.02 3.34 -1 3 C-0.67 2.01 -0.34 1.02 0 0 Z " fill="#2F2A49" transform="translate(672,268)"/>
<path d="M0 0 C-0.1875 1.875 -0.1875 1.875 -1 4 C-3.5625 5.25 -3.5625 5.25 -6 6 C-6.33 4.35 -6.66 2.7 -7 1 C-3.375 -1.125 -3.375 -1.125 0 0 Z " fill="#3F3C58" transform="translate(694,258)"/>
<path d="M0 0 C2.9375 0.375 2.9375 0.375 6 1 C6.33 1.66 6.66 2.32 7 3 C6.67 3.66 6.34 4.32 6 5 C3.03 4.505 3.03 4.505 0 4 C0 2.66666667 0 1.33333333 0 0 Z " fill="#2E2B49" transform="translate(704,688)"/>
<path d="M0 0 C0.33 0 0.66 0 1 0 C1.95261487 4.76307437 2.08333357 9.1666528 2 14 C1.54625 13.34 1.0925 12.68 0.625 12 C0.08875 11.34 -0.4475 10.68 -1 10 C-1.66 10 -2.32 10 -3 10 C-2.67 8.35 -2.34 6.7 -2 5 C-1.34 5 -0.68 5 0 5 C0 3.35 0 1.7 0 0 Z " fill="#585570" transform="translate(564,492)"/>
<path d="M0 0 C2.88437779 1.29299694 4.87219421 2.65941363 7 5 C6.01 5.99 5.02 6.98 4 8 C1.10067643 5.60490662 0.49831724 3.68754757 0 0 Z " fill="#2F2C49" transform="translate(944,282)"/>
<path d="M0 0 C0.66 0.33 1.32 0.66 2 1 C2 2.65 2 4.3 2 6 C0.02 6.99 0.02 6.99 -2 8 C-2.33 6.02 -2.66 4.04 -3 2 C-2.01 1.34 -1.02 0.68 0 0 Z " fill="#383755" transform="translate(567,517)"/>
<path d="M0 0 C2.95929119 2.75520215 5.03681826 5.46627288 7 9 C4 9 4 9 1 8 C0.67 5.36 0.34 2.72 0 0 Z " fill="#373651" transform="translate(864,480)"/>
<path d="M0 0 C0.99 0.66 1.98 1.32 3 2 C1.19587357 5.26460973 0.16605307 6.88929795 -3 9 C-2.25 2.25 -2.25 2.25 0 0 Z " fill="#3D3A56" transform="translate(643,289)"/>
<path d="M0 0 C2.475 0.99 2.475 0.99 5 2 C4.67 3.65 4.34 5.3 4 7 C2.02 6.01 0.04 5.02 -2 4 C-1.34 2.68 -0.68 1.36 0 0 Z " fill="#3A3855" transform="translate(913,261)"/>
<path d="M0 0 C3.63 0 7.26 0 11 0 C9.4375 2.0625 9.4375 2.0625 7 4 C3.25 3.75 3.25 3.75 0 3 C0 2.01 0 1.02 0 0 Z " fill="#373451" transform="translate(829,235)"/>
<path d="M0 0 C2.64 0 5.28 0 8 0 C7.01 0.33 6.02 0.66 5 1 C5 1.66 5 2.32 5 3 C6.65 3 8.3 3 10 3 C10 3.33 10 3.66 10 4 C6.7 4.33 3.4 4.66 0 5 C0.99 4.01 1.98 3.02 3 2 C2.01 1.34 1.02 0.68 0 0 Z " fill="#514F68" transform="translate(832,704)"/>
<path d="M0 0 C0.99 0.66 1.98 1.32 3 2 C2.34 3.98 1.68 5.96 1 8 C0.34 8 -0.32 8 -1 8 C-1.66 6.02 -2.32 4.04 -3 2 C-2.01 1.34 -1.02 0.68 0 0 Z " fill="#E6E6EE" transform="translate(890,515)"/>
<path d="M0 0 C1.32 0.33 2.64 0.66 4 1 C3.67 3.31 3.34 5.62 3 8 C2.01 7.67 1.02 7.34 0 7 C0 4.69 0 2.38 0 0 Z " fill="#2B2B47" transform="translate(568,405)"/>
<path d="M0 0 C0.99 0 1.98 0 3 0 C3.33 0.99 3.66 1.98 4 3 C3.01 4.485 3.01 4.485 2 6 C1.01 6 0.02 6 -1 6 C-1.33 5.01 -1.66 4.02 -2 3 C-1.34 2.01 -0.68 1.02 0 0 Z " fill="#3D3954" transform="translate(999,595)"/>
<path d="M0 0 C2.1519437 3.22791555 2.20086443 4.28400809 2 8 C0.68 7.67 -0.64 7.34 -2 7 C-2 5.35 -2 3.7 -2 2 C-1.34 2 -0.68 2 0 2 C0 1.34 0 0.68 0 0 Z " fill="#272445" transform="translate(570,530)"/>
<path d="M0 0 C-0.33 3.96 -0.66 7.92 -1 12 C-1.33 12 -1.66 12 -2 12 C-2 10.02 -2 8.04 -2 6 C-2.66 6 -3.32 6 -4 6 C-3.625 3.5625 -3.625 3.5625 -3 1 C-1 0 -1 0 0 0 Z " fill="#343352" transform="translate(1037,442)"/>
<path d="M0 0 C1.32 0.33 2.64 0.66 4 1 C4 2.65 4 4.3 4 6 C3.34 6 2.68 6 2 6 C1.67 6.99 1.34 7.98 1 9 C0.67 6.03 0.34 3.06 0 0 Z " fill="#24213F" transform="translate(1028,413)"/>
<path d="M0 0 C0.99 0 1.98 0 3 0 C4.76462683 3.08809695 5 4.23312136 5 8 C4.01 7.67 3.02 7.34 2 7 C0.8125 3.4375 0.8125 3.4375 0 0 Z " fill="#3B3956" transform="translate(1019,388)"/>
<path d="M0 0 C3.465 1.98 3.465 1.98 7 4 C4 6 4 6 2 6 C1.67 6.66 1.34 7.32 1 8 C0.67 5.36 0.34 2.72 0 0 Z " fill="#E2E3EB" transform="translate(929,376)"/>
<path d="M0 0 C1.98 0 3.96 0 6 0 C6.33 0.99 6.66 1.98 7 3 C0.565 3.495 0.565 3.495 -6 4 C-6 3.67 -6 3.34 -6 3 C-4.35 3 -2.7 3 -1 3 C-0.67 2.01 -0.34 1.02 0 0 Z " fill="#504D69" transform="translate(828,234)"/>
<path d="M0 0 C0.33 0 0.66 0 1 0 C1.3125 2.75 1.3125 2.75 1 6 C-1.3125 8.4375 -1.3125 8.4375 -4 10 C-4.99 9.67 -5.98 9.34 -7 9 C-6.21625 8.443125 -5.4325 7.88625 -4.625 7.3125 C-1.91295142 4.92331435 -1.03866457 3.39926587 0 0 Z " fill="#3B3B55" transform="translate(957,1052)"/>
<path d="M0 0 C1.32 1.32 2.64 2.64 4 4 C1.69 4.33 -0.62 4.66 -3 5 C-3.33 4.01 -3.66 3.02 -4 2 C-2.68 1.34 -1.36 0.68 0 0 Z " fill="#433F59" transform="translate(909,679)"/>
<path d="M0 0 C1.98 0 3.96 0 6 0 C5.67 0.99 5.34 1.98 5 3 C3.02 3.33 1.04 3.66 -1 4 C-0.67 2.68 -0.34 1.36 0 0 Z " fill="#2D2A4A" transform="translate(911,678)"/>
<path d="M0 0 C0.66 0.99 1.32 1.98 2 3 C1.25 5.4375 1.25 5.4375 0 8 C-0.37125 8.763125 -0.7425 9.52625 -1.125 10.3125 C-1.41375 10.869375 -1.7025 11.42625 -2 12 C-2.66 12 -3.32 12 -4 12 C-3.33501617 7.61110675 -1.81242323 4.0188515 0 0 Z " fill="#464760" transform="translate(595,443)"/>
<path d="M0 0 C2 3 2 3 1.625 5.6875 C1.41875 6.450625 1.2125 7.21375 1 8 C0.34 7.34 -0.32 6.68 -1 6 C-1.99 6 -2.98 6 -4 6 C-2.68 4.02 -1.36 2.04 0 0 Z " fill="#3D3A55" transform="translate(599,339)"/>
<path d="M0 0 C0.66 0 1.32 0 2 0 C1.835 1.051875 1.67 2.10375 1.5 3.1875 C1.10430322 6.20468796 0.90821029 8.97093972 1 12 C-1 10 -1 10 -1.1875 6.5625 C-1 3 -1 3 0 0 Z " fill="#282846" transform="translate(642,369)"/>
<path d="M0 0 C0.66 0.33 1.32 0.66 2 1 C-0.75 6.875 -0.75 6.875 -3 8 C-3 7.34 -3 6.68 -3 6 C-3.66 5.67 -4.32 5.34 -5 5 C-3.35 3.35 -1.7 1.7 0 0 Z " fill="#282442" transform="translate(640,292)"/>
<path d="M0 0 C2 3 2 3 2 5 C-0.31 4.67 -2.62 4.34 -5 4 C-5 3.34 -5 2.68 -5 2 C-3.35 1.34 -1.7 0.68 0 0 Z " fill="#403C59" transform="translate(714,247)"/>
<path d="M0 0 C1.65 0.33 3.3 0.66 5 1 C5 1.99 5 2.98 5 4 C3.35 4 1.7 4 0 4 C0 2.68 0 1.36 0 0 Z " fill="#292643" transform="translate(868,243)"/>
<path d="M0 0 C0.99 0 1.98 0 3 0 C2.625 2.9375 2.625 2.9375 2 6 C1.01 6.495 1.01 6.495 0 7 C-0.38133299 5.0085944 -0.71325582 3.00720923 -1 1 C-0.67 0.67 -0.34 0.34 0 0 Z " fill="#292548" transform="translate(583,368)"/>
<path d="M0 0 C1.98 0.66 3.96 1.32 6 2 C6 2.99 6 3.98 6 5 C4.02 4.34 2.04 3.68 0 3 C0 2.01 0 1.02 0 0 Z " fill="#3A3653" transform="translate(975,313)"/>
<path d="M0 0 C0.66 0.99 1.32 1.98 2 3 C1.67 3.99 1.34 4.98 1 6 C0.01 6.33 -0.98 6.66 -2 7 C-2.33 5.35 -2.66 3.7 -3 2 C-2.01 1.34 -1.02 0.68 0 0 Z " fill="#3F3C57" transform="translate(935,663)"/>
<path d="M0 0 C-0.33 2.31 -0.66 4.62 -1 7 C-1.99 6.67 -2.98 6.34 -4 6 C-4 4.68 -4 3.36 -4 2 C-1 0 -1 0 0 0 Z " fill="#252241" transform="translate(1029,535)"/>
<path d="M0 0 C3.35620271 1.38877354 5.07298728 2.91677965 7 6 C7 6.66 7 7.32 7 8 C6.34 8 5.68 8 5 8 C4.67 6.68 4.34 5.36 4 4 C3.01 4 2.02 4 1 4 C0.67 2.68 0.34 1.36 0 0 Z " fill="#2C2947" transform="translate(1018,384)"/>
<path d="M0 0 C0.33 0.66 0.66 1.32 1 2 C1.99 2.33 2.98 2.66 4 3 C3.01 4.32 2.02 5.64 1 7 C1 6.34 1 5.68 1 5 C0.01 4.67 -0.98 4.34 -2 4 C-1.34 2.68 -0.68 1.36 0 0 Z " fill="#3F3C56" transform="translate(585,363)"/>
<path d="M0 0 C1.65 0 3.3 0 5 0 C5 0.99 5 1.98 5 3 C3.02 3.33 1.04 3.66 -1 4 C-0.67 2.68 -0.34 1.36 0 0 Z " fill="#2A2543" transform="translate(707,250)"/>
<path d="M0 0 C-1.32 1.32 -2.64 2.64 -4 4 C-4.99 3.34 -5.98 2.68 -7 2 C-7 1.34 -7 0.68 -7 0 C-4.3333581 -1.33332095 -2.83319697 -0.67102033 0 0 Z " fill="#413C59" transform="translate(889,249)"/>
<path d="M0 0 C-2 2 -2 2 -4.625 2.125 C-5.40875 2.08375 -6.1925 2.0425 -7 2 C-7 1.34 -7 0.68 -7 0 C-7.66 -0.33 -8.32 -0.66 -9 -1 C-5.23375329 -2.25541557 -3.62811066 -1.37061958 0 0 Z " fill="#302D4C" transform="translate(736,244)"/>
<path d="M0 0 C0.66 0 1.32 0 2 0 C0.55746343 3.36591866 -1.33264727 5.51047079 -4 8 C-4.66 7.67 -5.32 7.34 -6 7 C-5.04882866 5.8274869 -4.08882991 4.66212985 -3.125 3.5 C-2.59132813 2.8503125 -2.05765625 2.200625 -1.5078125 1.53125 C-0.76144531 0.77328125 -0.76144531 0.77328125 0 0 Z " fill="#33354F" transform="translate(739,975)"/>
<path d="M0 0 C1.32 0.66 2.64 1.32 4 2 C3.34 2 2.68 2 2 2 C1.67 2.99 1.34 3.98 1 5 C-1.475 4.01 -1.475 4.01 -4 3 C-2.68 2.01 -1.36 1.02 0 0 Z " fill="#403C5C" transform="translate(689,680)"/>
<path d="M0 0 C1.98 0.99 1.98 0.99 4 2 C3.625 3.9375 3.625 3.9375 3 6 C2.01 6.495 2.01 6.495 1 7 C0.67 4.69 0.34 2.38 0 0 Z " fill="#3C3957" transform="translate(621,627)"/>
<path d="M0 0 C-0.375 1.9375 -0.375 1.9375 -1 4 C-1.99 4.495 -1.99 4.495 -3 5 C-3 4.34 -3 3.68 -3 3 C-4.32 3.33 -5.64 3.66 -7 4 C-4.83989616 0.75984424 -3.8842653 0 0 0 Z " fill="#3D3854" transform="translate(619,318)"/>
<path d="M0 0 C2.35953094 2.35953094 2.49141413 3.77895617 3 7 C-1.875 5.25 -1.875 5.25 -3 3 C-2.01 2.01 -1.02 1.02 0 0 Z " fill="#CACBD9" transform="translate(623,223)"/>
<path d="M0 0 C2.97 0.495 2.97 0.495 6 1 C5.67 1.99 5.34 2.98 5 4 C3.35 4.33 1.7 4.66 0 5 C0 4.34 0 3.68 0 3 C0.66 2.67 1.32 2.34 2 2 C1.34 1.34 0.68 0.68 0 0 Z " fill="#5B5871" transform="translate(747,701)"/>
<path d="M0 0 C0.598125 0.20625 1.19625 0.4125 1.8125 0.625 C1.4825 1.615 1.1525 2.605 0.8125 3.625 C-1.1675 2.965 -3.1475 2.305 -5.1875 1.625 C-2.1875 -0.375 -2.1875 -0.375 0 0 Z " fill="#403C5B" transform="translate(873.1875,695.375)"/>
<path d="M0 0 C0 0.66 0 1.32 0 2 C0.66 2.33 1.32 2.66 2 3 C-0.375 3.625 -0.375 3.625 -3 4 C-3.66 3.34 -4.32 2.68 -5 2 C-2 0 -2 0 0 0 Z " fill="#292645" transform="translate(906,682)"/>
<path d="M0 0 C0.99 0.66 1.98 1.32 3 2 C3 2.66 3 3.32 3 4 C0.69 3.67 -1.62 3.34 -4 3 C-3 1 -3 1 0 0 Z " fill="#3C3954" transform="translate(677,673)"/>
<path d="M0 0 C1.2065625 0.0309375 1.2065625 0.0309375 2.4375 0.0625 C0.6875 3.9375 0.6875 3.9375 -1.5625 5.0625 C-1.5625 4.0725 -1.5625 3.0825 -1.5625 2.0625 C-2.2225 1.7325 -2.8825 1.4025 -3.5625 1.0625 C-2.5625 0.0625 -2.5625 0.0625 0 0 Z " fill="#3D3855" transform="translate(972.5625,632.9375)"/>
<path d="M0 0 C0.66 0.99 1.32 1.98 2 3 C1.34 4.32 0.68 5.64 0 7 C-0.99 5.68 -1.98 4.36 -3 3 C-2.01 2.01 -1.02 1.02 0 0 Z " fill="#3C3956" transform="translate(597,593)"/>
<path d="M0 0 C0.33 0.99 0.66 1.98 1 3 C-2.3 3 -5.6 3 -9 3 C-9 2.67 -9 2.34 -9 2 C-3.375 0 -3.375 0 0 0 Z " fill="#282645" transform="translate(1139,594)"/>
<path d="M0 0 C0.33 0 0.66 0 1 0 C1 2.97 1 5.94 1 9 C0.01 8.67 -0.98 8.34 -2 8 C-1.34 5.36 -0.68 2.72 0 0 Z " fill="#383651" transform="translate(1005,584)"/>
<path d="M0 0 C0.33 0.66 0.66 1.32 1 2 C-0.32 3.65 -1.64 5.3 -3 7 C-3.99 6.67 -4.98 6.34 -6 6 C-4.02 4.02 -2.04 2.04 0 0 Z " fill="#46465F" transform="translate(507,568)"/>
<path d="M0 0 C0.99 0.33 1.98 0.66 3 1 C2.67 2.98 2.34 4.96 2 7 C0.4375 5.75 0.4375 5.75 -1 4 C-0.6875 1.8125 -0.6875 1.8125 0 0 Z " fill="#E3E4ED" transform="translate(714,521)"/>
<path d="M0 0 C0.66 0 1.32 0 2 0 C2.33 1.32 2.66 2.64 3 4 C1.02 4.99 1.02 4.99 -1 6 C-1.042721 4.33388095 -1.04063832 2.66617115 -1 1 C-0.67 0.67 -0.34 0.34 0 0 Z " fill="#262644" transform="translate(565,513)"/>
<path d="M0 0 C1.42944945 2.35438733 2.08661261 3.48032433 1.625 6.25 C1.41875 6.8275 1.2125 7.405 1 8 C0.67 7.01 0.34 6.02 0 5 C-0.66 5 -1.32 5 -2 5 C-2 4.01 -2 3.02 -2 2 C-1.34 2 -0.68 2 0 2 C0 1.34 0 0.68 0 0 Z " fill="#514E67" transform="translate(1032,417)"/>
<path d="M0 0 C2.475 0.495 2.475 0.495 5 1 C4.34 2.32 3.68 3.64 3 5 C1.5 3.625 1.5 3.625 0 2 C0 1.34 0 0.68 0 0 Z " fill="#2A2744" transform="translate(999,346)"/>
<path d="M0 0 C2.4375 0.375 2.4375 0.375 5 1 C5.33 1.66 5.66 2.32 6 3 C4.02 3.33 2.04 3.66 0 4 C-0.33 3.34 -0.66 2.68 -1 2 C-0.67 1.34 -0.34 0.68 0 0 Z " fill="#2A2544" transform="translate(895,253)"/>
<path d="M0 0 C1.32 0.66 2.64 1.32 4 2 C3.01 3.485 3.01 3.485 2 5 C0.35 4.67 -1.3 4.34 -3 4 C-2.01 2.68 -1.02 1.36 0 0 Z " fill="#47435E" transform="translate(892,251)"/>
</svg>
